<svg xmlns="http://www.w3.org/2000/svg" viewBox="0 0 224.47 135.09"><defs><style>.cls-1{fill:#333;}</style></defs><title>ghd_1</title><g id="Layer_2" data-name="Layer 2"><g id="Layer_1-2" data-name="Layer 1"><path class="cls-1" d="M139.25,75.58a6.19,6.19,0,1,0,6.19,6.19A6.19,6.19,0,0,0,139.25,75.58Z"/><path class="cls-1" d="M139.25,103.08a6.19,6.19,0,1,0-6.19-6.19A6.23,6.23,0,0,0,139.25,103.08Z"/><path class="cls-1" d="M130.63,52.65a6.16,6.16,0,1,0,12.32,0H143a6.19,6.19,0,1,0-12.37,0Z"/><path class="cls-1" d="M133.74,129.58l-.05-18.13h-1.63V119H132a3.87,3.87,0,0,0-.7-1.24,4.42,4.42,0,0,0-1.08-.89,5,5,0,0,0-1.33-.54,4.82,4.82,0,0,0-1.4-.19,5.52,5.52,0,0,0-2.62.57,5.12,5.12,0,0,0-1.78,1.59,6,6,0,0,0-1.08,2.19,9.81,9.81,0,0,0,0,5.32A6.5,6.5,0,0,0,123.1,128a5.1,5.1,0,0,0,1.83,1.48,5.71,5.71,0,0,0,2.62.54,5.2,5.2,0,0,0,1.43-.21,6.52,6.52,0,0,0,1.36-.57,5.9,5.9,0,0,0,1.13-.89,4,4,0,0,0,.76-1.19h.05v2.46ZM131.85,125a5.23,5.23,0,0,1-.81,1.78,4.14,4.14,0,0,1-3.57,1.79,3.89,3.89,0,0,1-1.94-.49,4,4,0,0,1-1.33-1.27,5.36,5.36,0,0,1-.75-1.78,8.53,8.53,0,0,1,0-4.08,5.36,5.36,0,0,1,.75-1.78,4.24,4.24,0,0,1,1.33-1.27,3.51,3.51,0,0,1,1.94-.49,4.14,4.14,0,0,1,2.14.49,4.24,4.24,0,0,1,1.43,1.27,5.23,5.23,0,0,1,.81,1.78A8.66,8.66,0,0,1,131.85,125Z"/><path class="cls-1" d="M133.06,66.83a6.19,6.19,0,1,0,6.19-6.19A6.18,6.18,0,0,0,133.06,66.83Z"/><path class="cls-1" d="M158.35,73.07a6.2,6.2,0,0,0,6.13-6.21l.05,0a6.19,6.19,0,1,0-6.18,6.19Z"/><path class="cls-1" d="M86.09,42.63a6.21,6.21,0,0,0,6.16-6.22l0,0a6.19,6.19,0,1,0-6.18,6.19Z"/><path class="cls-1" d="M86.09,27.53a6.21,6.21,0,0,0,6.16-6.22l0,0a6.19,6.19,0,1,0-6.18,6.19Z"/><path class="cls-1" d="M86.09,57.75a6.2,6.2,0,0,0,6.16-6.21l0,0a6.19,6.19,0,1,0-6.18,6.18Z"/><path class="cls-1" d="M86.09,12.4a6.21,6.21,0,0,0,6.16-6.21l0,0a6.19,6.19,0,1,0-6.18,6.19Z"/><path class="cls-1" d="M86.06,72.85a6.19,6.19,0,1,0-6.18-6.18A6.2,6.2,0,0,0,86.06,72.85Z"/><path class="cls-1" d="M99.24,49a6.19,6.19,0,0,0,6.16-6.21l0,0A6.19,6.19,0,1,0,99.24,49Z"/><path class="cls-1" d="M127.45,47.25a6.19,6.19,0,1,0-6.19-6.19A6.17,6.17,0,0,0,127.45,47.25Z"/><path class="cls-1" d="M218.23,42.76a6.19,6.19,0,1,0-6.18-6.18A6.14,6.14,0,0,0,218.23,42.76Z"/><path class="cls-1" d="M204.43,48.89a6.19,6.19,0,1,0-6.18-6.18A6.22,6.22,0,0,0,204.43,48.89Z"/><path class="cls-1" d="M218.23,27.58a6.19,6.19,0,1,0-6.18-6.19A6.15,6.15,0,0,0,218.23,27.58Z"/><path class="cls-1" d="M218.23,57.94a6.19,6.19,0,1,0-6.18-6.18A6.14,6.14,0,0,0,218.23,57.94Z"/><path class="cls-1" d="M162.37,75.39a6.19,6.19,0,1,0,6.19,6.19A6.19,6.19,0,0,0,162.37,75.39Z"/><path class="cls-1" d="M218.23,12.37a6.11,6.11,0,0,0,6.19-6.18,6.19,6.19,0,1,0-6.19,6.18Z"/><path class="cls-1" d="M207.83,81.88A6.19,6.19,0,1,0,214,75.69,6.19,6.19,0,0,0,207.83,81.88Z"/><path class="cls-1" d="M174.26,47.57a6.15,6.15,0,0,0,6.21-6.16v0h.05a6.19,6.19,0,1,0-6.26,6.21Z"/><path class="cls-1" d="M163,58.1a6.2,6.2,0,0,0,6.16-6.21l0,0A6.19,6.19,0,1,0,163,58.1Z"/><path class="cls-1" d="M173.93,116.45l0,13.16h1.62v-7a5,5,0,0,1,.35-1.89,4.81,4.81,0,0,1,1-1.54,4.28,4.28,0,0,1,1.54-1,4.68,4.68,0,0,1,2-.3v-1.62a4.9,4.9,0,0,0-3,.81,5,5,0,0,0-1.89,2.43h-.06v-3.08Z"/><path class="cls-1" d="M189.66,44.41a6.19,6.19,0,0,0,6.15-6.19h.06a6.19,6.19,0,1,0-6.21,6.19Z"/><path class="cls-1" d="M188.09,102.86a6.19,6.19,0,1,0-6.19-6.18A6.18,6.18,0,0,0,188.09,102.86Z"/><path class="cls-1" d="M35.66,44.41a6.19,6.19,0,1,0-6.19-6.19A6.19,6.19,0,0,0,35.66,44.41Z"/><path class="cls-1" d="M209.19,92.71A6.19,6.19,0,1,0,203,98.89,6.19,6.19,0,0,0,209.19,92.71Z"/><path class="cls-1" d="M86.06,88a6.19,6.19,0,1,0-6.18-6.18A6.19,6.19,0,0,0,86.06,88Z"/><path class="cls-1" d="M10.43,88.2A6.28,6.28,0,0,0,16.64,82a6.19,6.19,0,1,0-6.21,6.19Z"/><path class="cls-1" d="M64,107.7a6.19,6.19,0,1,0,6.19,6.19A6.18,6.18,0,0,0,64,107.7Z"/><path class="cls-1" d="M218.29,60.78a6.19,6.19,0,1,0,6.16,6.16l0,0A6.18,6.18,0,0,0,218.29,60.78Z"/><path class="cls-1" d="M218.67,127.66l-4.3-11.15h-1.7l5.29,13L217.4,131c-.14.3-.25.6-.35.81a2.2,2.2,0,0,1-.44.65,1.64,1.64,0,0,1-.62.43,2.06,2.06,0,0,1-.89.14h-.54L214,133v1.35a2.52,2.52,0,0,0,.46.1h.76a4.53,4.53,0,0,0,1.21-.13,2,2,0,0,0,.89-.46,2.77,2.77,0,0,0,.71-.86,9.52,9.52,0,0,0,.62-1.38l5.67-15.07h-1.62Z"/><path class="cls-1" d="M84.87,134.58a8.3,8.3,0,0,0,4.62-.19,4.69,4.69,0,0,0,1.79-1.24,4.87,4.87,0,0,0,1-2,10.51,10.51,0,0,0,.33-2.62v-12l-1.54,0v2.26h0a5.1,5.1,0,0,0-.63-1,3.61,3.61,0,0,0-.94-.81,4.86,4.86,0,0,0-1.22-.57,6.32,6.32,0,0,0-1.37-.22,6.05,6.05,0,0,0-2.54.52,5.29,5.29,0,0,0-1.87,1.43,6.06,6.06,0,0,0-1.13,2.11,8,8,0,0,0-.41,2.54,10.67,10.67,0,0,0,.33,2.64,5.78,5.78,0,0,0,1,2.14A5.13,5.13,0,0,0,84.12,129a6,6,0,0,0,2.7.51,4.45,4.45,0,0,0,2.54-.73A4.71,4.71,0,0,0,91,126.8h0v1.78a6,6,0,0,1-1,3.65,3.89,3.89,0,0,1-3.24,1.27,7.18,7.18,0,0,1-1.3-.14,3.8,3.8,0,0,1-1.16-.46,3,3,0,0,1-.89-.81,3.09,3.09,0,0,1-.49-1.21H81.36a3.54,3.54,0,0,0,.57,1.78,4,4,0,0,0,1.24,1.21A5.33,5.33,0,0,0,84.87,134.58Zm5.87-9.75a5.2,5.2,0,0,1-.82,1.67,4.19,4.19,0,0,1-1.32,1.16,3.57,3.57,0,0,1-1.84.43,3.86,3.86,0,0,1-3.21-1.59,4.56,4.56,0,0,1-.81-1.67,7.77,7.77,0,0,1-.24-1.92,8.36,8.36,0,0,1,.24-2,4.6,4.6,0,0,1,.78-1.73,4.22,4.22,0,0,1,1.35-1.24,3.7,3.7,0,0,1,1.95-.46,3.5,3.5,0,0,1,1.94.48,4.15,4.15,0,0,1,1.3,1.27,5.43,5.43,0,0,1,.73,1.76,7.7,7.7,0,0,1,.22,1.92A7,7,0,0,1,90.74,124.83Z"/><path class="cls-1" d="M209.51,119h0a3.91,3.91,0,0,0-.73-1.25,4.66,4.66,0,0,0-1.08-.89,5,5,0,0,0-1.33-.54,5.25,5.25,0,0,0-1.43-.19,5.57,5.57,0,0,0-2.59.57,5.4,5.4,0,0,0-1.79,1.54,6.74,6.74,0,0,0-1.1,2.19,10.43,10.43,0,0,0,0,5.32,6.19,6.19,0,0,0,1.1,2.19,5.22,5.22,0,0,0,1.84,1.48,5.66,5.66,0,0,0,2.59.54,5.33,5.33,0,0,0,1.44-.21,6.67,6.67,0,0,0,1.35-.57,5.9,5.9,0,0,0,1.13-.89,4.16,4.16,0,0,0,.76-1.19h0v2.46h1.46V116.32h-1.62Zm-.19,6.08a5.32,5.32,0,0,1-.81,1.78,4.36,4.36,0,0,1-1.43,1.27,4.2,4.2,0,0,1-2.14.48,3.78,3.78,0,0,1-1.94-.48,4,4,0,0,1-1.32-1.27,5.19,5.19,0,0,1-.76-1.78,8,8,0,0,1,0-4.06,5.19,5.19,0,0,1,.76-1.78A4,4,0,0,1,203,118a3.6,3.6,0,0,1,1.94-.49,4.24,4.24,0,0,1,2.14.49,4.36,4.36,0,0,1,1.43,1.27,5.32,5.32,0,0,1,.81,1.78A8.71,8.71,0,0,1,209.32,125.1Z"/><path class="cls-1" d="M44,128.9a6.17,6.17,0,1,0-6.16,6.19A6.18,6.18,0,0,0,44,128.9Z"/><path class="cls-1" d="M195.6,119h-.06a3.77,3.77,0,0,0-.73-1.25,4.28,4.28,0,0,0-1.08-.89,4.77,4.77,0,0,0-1.32-.54,5.25,5.25,0,0,0-1.43-.19,5.57,5.57,0,0,0-2.59.57,5.09,5.09,0,0,0-1.84,1.51,6.15,6.15,0,0,0-1.08,2.19,9.81,9.81,0,0,0,0,5.32,6.41,6.41,0,0,0,1.08,2.19,5.43,5.43,0,0,0,1.84,1.49A5.8,5.8,0,0,0,191,130a4.91,4.91,0,0,0,1.43-.22,5.37,5.37,0,0,0,1.35-.57,6,6,0,0,0,1.14-.89,3.44,3.44,0,0,0,.75-1.19h.06v2.49h1.46l.05-18.07H195.6Zm-.22,6.08a5.32,5.32,0,0,1-.81,1.78,4.36,4.36,0,0,1-1.43,1.27,4.17,4.17,0,0,1-2.13.48,3.81,3.81,0,0,1-1.95-.48,4.33,4.33,0,0,1-1.32-1.27,6.1,6.1,0,0,1-.76-1.78,8.71,8.71,0,0,1,0-4.06,5.6,5.6,0,0,1,.76-1.78,4.56,4.56,0,0,1,1.32-1.27,3.63,3.63,0,0,1,1.95-.49,4.23,4.23,0,0,1,2.13.49,4.36,4.36,0,0,1,1.43,1.27,5.32,5.32,0,0,1,.81,1.78A8.45,8.45,0,0,1,195.38,125.1Z"/><path class="cls-1" d="M179.36,92.44a6.19,6.19,0,1,0-6.18,6.18A6.18,6.18,0,0,0,179.36,92.44Z"/><path class="cls-1" d="M116.8,129.39a5.7,5.7,0,0,0,2-1.49,6.45,6.45,0,0,0,1.19-2.18,9,9,0,0,0,0-5.35,6.45,6.45,0,0,0-1.19-2.22,5.8,5.8,0,0,0-2-1.48,6.66,6.66,0,0,0-5.29,0,5.8,5.8,0,0,0-2,1.48,6.45,6.45,0,0,0-1.19,2.22,9,9,0,0,0,0,5.35,6.18,6.18,0,0,0,1.19,2.18,5.7,5.7,0,0,0,2,1.49A6.66,6.66,0,0,0,116.8,129.39Zm-6-2.57a6,6,0,0,1-.86-1.78,7.34,7.34,0,0,1,0-4.05,6,6,0,0,1,.86-1.78,4.58,4.58,0,0,1,1.43-1.27,4.53,4.53,0,0,1,4,0,4,4,0,0,1,1.43,1.27,6,6,0,0,1,.87,1.78,7.34,7.34,0,0,1,0,4.05,6,6,0,0,1-.87,1.78,4.47,4.47,0,0,1-1.43,1.27,4.35,4.35,0,0,1-4,0A4.58,4.58,0,0,1,110.75,126.82Z"/><path class="cls-1" d="M147.65,117.48a3.7,3.7,0,0,1,1.62.29,2.67,2.67,0,0,1,1,.82,3.54,3.54,0,0,1,.54,1.26,7.47,7.47,0,0,1,.16,1.57v8.19h1.62v-8.43a9.71,9.71,0,0,0-.32-2.14,3.49,3.49,0,0,0-2.27-2.59,6.59,6.59,0,0,0-2.3-.35,5.06,5.06,0,0,0-2.56.7,3.66,3.66,0,0,0-1.63,1.92h0V111.4H141.9l0,18.21h1.62V122a6,6,0,0,1,.27-1.78,4.17,4.17,0,0,1,.82-1.41,3.73,3.73,0,0,1,1.29-.94A4.28,4.28,0,0,1,147.65,117.48Z"/><path class="cls-1" d="M113.18,44.25A6.21,6.21,0,0,0,119.34,38l0,0a6.19,6.19,0,1,0-6.19,6.19Z"/><path class="cls-1" d="M161.64,129.74a5.37,5.37,0,0,0,1.35-.57,5.66,5.66,0,0,0,1.14-.89,3.63,3.63,0,0,0,.75-1.19h.06v2.49h1.46l0-13.26h-1.62V119h-.05a4.14,4.14,0,0,0-.73-1.25,4.66,4.66,0,0,0-1.08-.89,5,5,0,0,0-1.33-.54,5.25,5.25,0,0,0-1.43-.19,5.57,5.57,0,0,0-2.59.57,5.09,5.09,0,0,0-1.84,1.51,6.32,6.32,0,0,0-1.08,2.19,9.81,9.81,0,0,0,0,5.32,6.79,6.79,0,0,0,1.08,2.19,5.53,5.53,0,0,0,1.84,1.49,5.8,5.8,0,0,0,2.59.54A4.91,4.91,0,0,0,161.64,129.74ZM157,126.88a5.6,5.6,0,0,1-.76-1.78,8.71,8.71,0,0,1,0-4.06,5.6,5.6,0,0,1,.76-1.78,4,4,0,0,1,1.32-1.27,3.63,3.63,0,0,1,2-.49,4.21,4.21,0,0,1,2.13.49,4.26,4.26,0,0,1,1.43,1.27,5.32,5.32,0,0,1,.81,1.78,8.45,8.45,0,0,1,0,4.06,5.32,5.32,0,0,1-.81,1.78,4.26,4.26,0,0,1-1.43,1.27,4.17,4.17,0,0,1-2.13.48,3.81,3.81,0,0,1-2-.48A4,4,0,0,1,157,126.88Z"/><path class="cls-1" d="M105.21,118.15a5.77,5.77,0,0,0-1.94-1.48,6.69,6.69,0,0,0-5.3,0A5.87,5.87,0,0,0,96,118.15a6.28,6.28,0,0,0-1.19,2.22,9,9,0,0,0,0,5.35A6,6,0,0,0,96,127.9,5.76,5.76,0,0,0,98,129.39a6.69,6.69,0,0,0,5.3,0,5.67,5.67,0,0,0,1.94-1.49,6.28,6.28,0,0,0,1.19-2.18,9,9,0,0,0,0-5.35A6.28,6.28,0,0,0,105.21,118.15Zm-.27,6.89a6,6,0,0,1-.86,1.78,4.47,4.47,0,0,1-1.43,1.27,4.35,4.35,0,0,1-4,0,4.47,4.47,0,0,1-1.43-1.27,6,6,0,0,1-.87-1.78,7.53,7.53,0,0,1,0-4.05,5.37,5.37,0,0,1,.87-1.78,4.47,4.47,0,0,1,1.43-1.27,4.53,4.53,0,0,1,4,0,4,4,0,0,1,1.43,1.27,6,6,0,0,1,.86,1.78A7.34,7.34,0,0,1,104.94,125Z"/><rect class="cls-1" x="169.37" y="111.48" width="1.62" height="2.57"/><rect class="cls-1" x="169.37" y="116.51" width="1.62" height="13.1"/><path class="cls-1" d="M21,48.65a6.19,6.19,0,1,0-6.19-6.19A6.21,6.21,0,0,0,21,48.65Z"/><path class="cls-1" d="M21.39,86.71a6.19,6.19,0,1,0,6.19,6.19A6.18,6.18,0,0,0,21.39,86.71Z"/><path class="cls-1" d="M46.57,124.45a6.19,6.19,0,1,0,6.19-6.19A6.19,6.19,0,0,0,46.57,124.45Z"/><path class="cls-1" d="M51.89,87.25a6.19,6.19,0,1,0,6.19,6.19A6.16,6.16,0,0,0,51.89,87.25Z"/><path class="cls-1" d="M22.74,118.26a6.19,6.19,0,1,0,6.19,6.19A6.19,6.19,0,0,0,22.74,118.26Z"/><path class="cls-1" d="M36.36,90.6a6.19,6.19,0,1,0,6.18,6.19A6.19,6.19,0,0,0,36.36,90.6Z"/><path class="cls-1" d="M61.59,58.73a6.19,6.19,0,1,0-6.19-6.19A6.19,6.19,0,0,0,61.59,58.73Z"/><path class="cls-1" d="M86.06,103.08a6.19,6.19,0,1,0-6.18-6.19A6.21,6.21,0,0,0,86.06,103.08Z"/><circle class="cls-1" cx="65.29" cy="67.69" r="6.19"/><circle class="cls-1" cx="65.8" cy="99.14" r="6.19"/><path class="cls-1" d="M65.48,77.26a6.19,6.19,0,1,0,6.18,6.18A6.17,6.17,0,0,0,65.48,77.26Z"/><path class="cls-1" d="M50.49,47.84a6.19,6.19,0,1,0-6.19-6.19A6.18,6.18,0,0,0,50.49,47.84Z"/><path class="cls-1" d="M10.18,59.37a6.19,6.19,0,1,0,0-12.37,6.19,6.19,0,0,0,0,12.37Z"/><path class="cls-1" d="M6.19,73.72A6.18,6.18,0,1,0,0,67.56,6.2,6.2,0,0,0,6.19,73.72Z"/></g></g></svg>