<svg xmlns="http://www.w3.org/2000/svg" viewBox="0 0 141.53 28.93"><defs><style>.cls-1{fill:#fff;}</style></defs><title>logo_white</title><g id="Layer_2" data-name="Layer 2"><g id="Layer_1-2" data-name="Layer 1"><path class="cls-1" d="M47.29,4.24a14.55,14.55,0,0,0-4.6-3.11,14.57,14.57,0,0,0-11.25,0,14.63,14.63,0,0,0-7.71,7.71,14.14,14.14,0,0,0-1.13,5.62,14.15,14.15,0,0,0,1.13,5.63,14.63,14.63,0,0,0,7.71,7.71,14.57,14.57,0,0,0,11.25,0,14.63,14.63,0,0,0,7.71-7.71,14.15,14.15,0,0,0,1.13-5.63A14.14,14.14,0,0,0,50.4,8.84,14.55,14.55,0,0,0,47.29,4.24ZM49,19.52a13.11,13.11,0,0,1-6.92,6.92,13,13,0,0,1-10.11,0,13.11,13.11,0,0,1-6.92-6.92,12.54,12.54,0,0,1-1-5.06,12.52,12.52,0,0,1,1-5.05A13.11,13.11,0,0,1,32,2.49a13,13,0,0,1,10.11,0A13.11,13.11,0,0,1,49,9.41a12.52,12.52,0,0,1,1,5.05A12.54,12.54,0,0,1,49,19.52Z"/><path class="cls-1" d="M73.52,3.84Q69.3.12,61.06.11h-4.8V28.76h4.8q8.25,0,12.46-3.76t4.21-10.59Q77.73,7.57,73.52,3.84Zm-1.3,20.29q-4,3.27-11.16,3.27H57.73V1.47h3.33q7.17,0,11.16,3.25t4,9.69Q76.2,20.85,72.22,24.13Z"/><path class="cls-1" d="M17.32,5.54a7.94,7.94,0,0,0-2.46-3A10.82,10.82,0,0,0,11.1.71,17.68,17.68,0,0,0,6.38.11H0V28.76H1.47v-9H6.38a17.68,17.68,0,0,0,4.72-.6,11,11,0,0,0,3.76-1.78,7.94,7.94,0,0,0,2.46-3,10.33,10.33,0,0,0,.87-4.41A10.31,10.31,0,0,0,17.32,5.54ZM15.76,14a6.93,6.93,0,0,1-1.59,2.08,5.7,5.7,0,0,1-.67.52l-.28.18a9.34,9.34,0,0,1-2.07,1c-.29.09-.59.18-.9.25a16.38,16.38,0,0,1-1.88.31,16.25,16.25,0,0,1-2,.11H1.47v-17H6.38a17.26,17.26,0,0,1,3.87.42,8.5,8.5,0,0,1,.9.25A9.15,9.15,0,0,1,13.5,3.28a6.75,6.75,0,0,1,2.26,2.6,8.71,8.71,0,0,1,.85,4.06A8.7,8.7,0,0,1,15.76,14Z"/><rect class="cls-1" x="82.46" y="0.11" width="1.47" height="28.65"/><path class="cls-1" d="M90.14,19.15V.11H88.67v19c0,3.17.85,5.59,2.57,7.27s4.17,2.51,7.37,2.51,5.67-.84,7.4-2.51,2.6-4.1,2.6-7.27V.11h-1.52v19q0,8.31-8.48,8.31T90.14,19.15Z"/><polygon class="cls-1" points="114.81 0.11 113.34 0.11 113.34 28.76 114.81 28.76 114.81 2.83 127.46 21.25 140.06 2.83 140.06 28.76 141.53 28.76 141.53 0.11 140.06 0.11 127.46 18.7 114.81 0.11"/></g></g></svg>