<svg xmlns="http://www.w3.org/2000/svg" viewBox="0 0 224.47 146.43"><defs><style>.cls-1{fill:#333;fill-rule:evenodd;}</style></defs><title>lpg</title><g id="Layer_2" data-name="Layer 2"><g id="Layer_1-2" data-name="Layer 1"><path class="cls-1" d="M30.21,2.1V82.24H61.26V2.1h42.38c11.74,0,22.23,2.1,30.2,10.07C143.5,4.2,158.18,0,173.29,0c15.52,0,31.46,5.45,44.47,25.17L193.43,36.5c-4.2-5.87-9.66-12.58-22.24-12.58-14.27,0-27.28,7.55-27.28,31.46,0,17.63,10.49,31.05,28.53,31.05,13,0,18.47-6.71,21.82-17.2H171.19V47h52.44c.42,3.78.84,7.13.84,8.39,0,30.63-20.14,54.55-54.54,54.55-29.79,0-44.9-16.78-52.87-38.6-6.71,2.93-11.33,2.52-16.78,2.52H91.47v34.4H.84V2.1ZM91.47,25.17V49.51h8.39c7.13,0,15.52-2.94,15.52-12.17,0-9.65-8.39-12.17-15.1-12.17Z"/><path class="cls-1" d="M0,133c.42,5.87,2.52,8.81,4.2,10.06,2.93,2.52,6.29,3.36,10.48,3.36,3.78,0,7.56,0,10.49-2.1,2.1-1.26,4.62-3.35,4.62-7.55,0-5.45-2.94-8.39-8-8.81s-8.81-.42-10.49-.42-5-.42-6.72-2.1a3.81,3.81,0,0,1-1.26-2.94c0-2.93,1.68-4.19,4.2-5.45a14.81,14.81,0,0,1,7.13-1.68,16.72,16.72,0,0,1,6.72,1.26v.42c2.52.84,5,4.2,5.45,8.39L29,125c-.84-5-3.78-8.39-6.71-9.65V115a22.48,22.48,0,0,0-7.56-1.26c-2.93,0-6.71.84-8,1.68-2.94,1.68-5,3.36-5,7.13a6.32,6.32,0,0,0,1.25,4.2c2.52,2.52,6.3,2.52,8.4,2.52,1.67,0,5.45,0,10.48.42,3.78.42,5.88,2.93,5.88,7.13,0,2.94-1.26,4.62-3.78,6.29-2.51,1.26-5.45,1.68-9.23,1.68s-6.71-.84-9.23-2.94c-2.1-1.67-3.35-5-3.35-9.23L0,133Z"/><path class="cls-1" d="M61.26,133c.42,5.87,2.52,8.81,4.19,10.06,2.94,2.52,5.88,3.36,10.49,3.36,3.78,0,7.14,0,10.07-2.1a7.72,7.72,0,0,0,4.62-7.55c0-5.45-2.52-8.39-8-8.81-4.62-.42-8.4-.42-10.49-.42-1.26,0-5-.42-6.72-2.1a6.07,6.07,0,0,1-.84-2.94c0-2.93,1.68-4.19,4.2-5.45.84-.84,3.78-1.68,7.13-1.68a14.2,14.2,0,0,1,6.3,1.26l.41.42c2.52.84,5,4.2,5.46,8.39l2.1-.42a13.49,13.49,0,0,0-6.72-9.65l-.42-.42a17.44,17.44,0,0,0-7.13-1.26,21,21,0,0,0-8.39,1.68c-2.52,1.68-5,3.36-5,7.13,0,1.68.42,3.36,1.68,4.2,2.1,2.52,5.88,2.52,8,2.52s5.46,0,10.49.42c4.2.42,6.3,2.93,6.3,7.13,0,2.94-1.68,4.62-3.78,6.29a21.32,21.32,0,0,1-9.23,1.68,14.7,14.7,0,0,1-9.65-2.94c-1.68-1.67-2.94-5-3.36-9.23l-1.67.43Z"/><path class="cls-1" d="M193.84,133c.42,5.87,2.52,8.81,4.2,10.06,2.94,2.52,6.29,3.36,10.49,3.36,3.78,0,7.55,0,10.49-2.1,2.1-1.26,4.61-3.35,4.61-7.55,0-5.45-2.93-8.39-8-8.81s-8.81-.42-10.49-.42-5-.42-6.71-2.1a3.81,3.81,0,0,1-1.26-2.94c0-2.93,1.68-4.19,4.2-5.45a14.75,14.75,0,0,1,7.13-1.68,16.66,16.66,0,0,1,6.71,1.26v.42c2.52.84,5,4.2,5.46,8.39l2.09-.42c-.84-5-3.77-8.39-6.71-9.65V115a22.41,22.41,0,0,0-7.55-1.26c-2.94,0-6.71.84-8,1.68-2.94,1.68-5,3.36-5,7.13a6.27,6.27,0,0,0,1.26,4.2c2.52,2.52,6.29,2.52,8.39,2.52,1.68,0,5.46,0,10.49.42,3.78.42,5.87,2.93,5.87,7.13,0,2.94-1.25,4.62-3.77,6.29-2.52,1.26-5.46,1.68-9.23,1.68s-6.71-.84-9.23-2.94c-2.1-1.67-3.36-5-3.36-9.23l-2.1.43Z"/><path class="cls-1" d="M57.06,116.22v11.33c0,5-5,10.49-11.75,10.49a13.32,13.32,0,0,1-9.23-3.78A8.7,8.7,0,0,1,33.15,128V116.22h-2.1V128a11.28,11.28,0,0,0,3.35,7.55,16.79,16.79,0,0,0,10.91,4.2,14.62,14.62,0,0,0,10.07-4.2,7.48,7.48,0,0,0,1.68-2.09v1.67c0,7.14-6.29,9.66-12.17,9.66s-9.65-2.1-11.74-6.3l-1.68.84c2.09,5,6.71,7.13,13.42,7.13,4.62,0,8.81-1.25,11.33-3.77a10.12,10.12,0,0,0,2.94-7.56V116.22Z"/><polygon class="cls-1" points="112.45 114.97 88.53 114.97 88.53 116.64 100.28 116.64 100.28 145.59 101.96 145.59 101.96 116.64 112.45 116.64 112.45 114.97"/><path class="cls-1" d="M124.61,144.76a14.66,14.66,0,0,1-10.07-4.2,14,14,0,0,1-4.19-10.49v-1.26H141v-1.26a16.47,16.47,0,0,0-32.73,2.52,15.23,15.23,0,0,0,5,11.75,16.17,16.17,0,0,0,11.32,4.61A16.39,16.39,0,0,0,141,131.75H139.3a14.59,14.59,0,0,1-14.69,13ZM114.54,120a13,13,0,0,1,10.07-4.2,14.86,14.86,0,0,1,14.27,10.91H110.77a11,11,0,0,1,3.77-6.71Z"/><path class="cls-1" d="M188.39,117.48a15.11,15.11,0,0,0-9.23-3.78,12.69,12.69,0,0,0-11.75,7.56l-2.52-3.78a14.94,14.94,0,0,0-9.65-3.35c-4.61-.43-8.39,2.09-10.91,5.87v-5h-1.68v30.62h1.68V126.71a11.53,11.53,0,0,1,10.91-10.91,11.69,11.69,0,0,1,8.39,3.36,9.87,9.87,0,0,1,2.52,7.13v19.3h2.1v-19.3c0-2.93.84-5.45,2.93-7.13a11.14,11.14,0,0,1,15.95,0c2.1,1.68,2.94,4.61,2.94,7.55v18.88h2.1V126.71a13,13,0,0,0-3.78-9.23Z"/></g></g></svg>