<svg xmlns="http://www.w3.org/2000/svg" viewBox="0 0 25.3 38.69"><title>Asset 45</title><g id="Layer_2" data-name="Layer 2"><g id="Layer_1-2" data-name="Layer 1"><path d="M24.08,7.52h0a11.27,11.27,0,0,0-3.45-4.28A15.18,15.18,0,0,0,15.48.79,24.37,24.37,0,0,0,9.18,0H0V38.69H3.88V27.18h5.3a23.94,23.94,0,0,0,6.3-.8,15.16,15.16,0,0,0,5.15-2.44,11.23,11.23,0,0,0,3.45-4.28,14.17,14.17,0,0,0,1.22-6.07A14.17,14.17,0,0,0,24.08,7.52ZM18.49,20.71a8.59,8.59,0,0,1-.76.59l-.16.1-.18.1A10.46,10.46,0,0,1,15,22.63c-.35.12-.7.21-1.06.3a19.35,19.35,0,0,1-2.3.38,21.59,21.59,0,0,1-2.43.13H3.88V3.74h5.3a21.3,21.3,0,0,1,4.73.51c.36.09.71.18,1.06.3a10.53,10.53,0,0,1,2.76,1.33,7.9,7.9,0,0,1,2.57,3,10.43,10.43,0,0,1,1,4.75,10.43,10.43,0,0,1-1,4.75h0A8.19,8.19,0,0,1,18.49,20.71Z"/></g></g></svg>