<svg xmlns="http://www.w3.org/2000/svg" viewBox="0 0 224.47 39.62"><defs><style>.cls-1{fill:#333;}</style></defs><title>sebastian</title><g id="Layer_2" data-name="Layer 2"><g id="Layer_1-2" data-name="Layer 1"><path class="cls-1" d="M72.86,34.19a5.11,5.11,0,0,1-3.33.82H60.36V29.33h9.17a5.38,5.38,0,0,1,3.25.71,2.84,2.84,0,0,1,.08,4.15M60.33,20.31h8.23a6,6,0,0,1,3.06.53,2.2,2.2,0,0,1,1,1.9,2.24,2.24,0,0,1-1.09,2,5.22,5.22,0,0,1-2.47.38H60.29V20.31Zm15.11,6.62a5.2,5.2,0,0,0,2.06-4.41,6,6,0,0,0-1.24-3.82c-2.05-2.61-5.53-2.61-7.63-2.61H56a.41.41,0,0,0-.41.41V38.79a.39.39,0,0,0,.41.38H68.63c2.47,0,5.58,0,7.71-1.84a6.47,6.47,0,0,0,2.2-5,6.14,6.14,0,0,0-3.1-5.43M49.37,16.12H29.17a.39.39,0,0,0-.38.41v22.3a.38.38,0,0,0,.38.37h20.2a.41.41,0,0,0,.41-.37V35.28a.42.42,0,0,0-.41-.42H33.54V29.37H47.79a.42.42,0,0,0,.38-.42V25.51a.41.41,0,0,0-.38-.41H33.54V20.42H49.37a.41.41,0,0,0,.41-.37V16.5a.39.39,0,0,0-.41-.38M90.1,29.74c.45-.94,3.37-6.66,3.93-7.78.56,1.12,3.41,6.84,3.89,7.78Zm6.25-13.43a.4.4,0,0,0-.37-.22H92.2a.36.36,0,0,0-.34.22L80.34,38.64a.31.31,0,0,0,0,.38.37.37,0,0,0,.33.18h4.46A.31.31,0,0,0,85.5,39s2.32-4.64,2.51-5h12.08c.19.37,2.51,5,2.51,5a.4.4,0,0,0,.37.22h4.53a.4.4,0,0,0,.34-.18.37.37,0,0,0,0-.38Zm60.42-.19H135.33a.39.39,0,0,0-.37.41V20a.37.37,0,0,0,.37.38h8.34V38.83a.38.38,0,0,0,.38.37h4a.37.37,0,0,0,.38-.37V20.39h8.38a.41.41,0,0,0,.41-.38V16.53a.39.39,0,0,0-.41-.41m67.26,0h-3.82a.39.39,0,0,0-.37.41v15.9C218.56,31,205.4,16.27,205.4,16.27a.51.51,0,0,0-.3-.15h-3.78a.41.41,0,0,0-.41.41v22.3a.38.38,0,0,0,.41.37h3.78a.41.41,0,0,0,.41-.37V23.16c1.23,1.38,14.48,16,14.48,16a.42.42,0,0,0,.29.11h3.78a.41.41,0,0,0,.41-.37V16.57c-.07-.3-.26-.45-.44-.45M180,29.74c.44-.94,3.36-6.66,3.92-7.78.56,1.12,3.41,6.84,3.86,7.78Zm6.24-13.43a.4.4,0,0,0-.37-.22h-3.78a.33.33,0,0,0-.34.22L170.23,38.64a.37.37,0,0,0,0,.38.4.4,0,0,0,.34.18H175a.36.36,0,0,0,.34-.22s2.32-4.64,2.5-5H190c.18.41,2.5,5,2.5,5a.42.42,0,0,0,.38.22h4.52a.39.39,0,0,0,.34-.18.37.37,0,0,0,0-.38Zm-19.49-.19h-4a.39.39,0,0,0-.37.41v22.3a.38.38,0,0,0,.37.37h4a.4.4,0,0,0,.41-.37V16.53a.39.39,0,0,0-.41-.41m-56.22,3.44a6.19,6.19,0,0,0-.9,3.18c0,5.09,5.13,6,7.3,6.44l2.69.45,3.89.63c1.42.27,2.77.71,2.77,2.25,0,2.73-4.34,3-5.65,3-3.63,0-6.25-1.16-7.41-3.29a.36.36,0,0,0-.41-.19l-4.38,1.16a.57.57,0,0,0-.26.23.33.33,0,0,0,0,.33c2.24,4,6.17,5.92,12,5.92,7.49,0,11.41-2.59,11.41-7.49,0-4.45-3.55-5.72-7-6.36L121,25.14l-3-.53c-1.69-.37-3-.78-3-2.2,0-1.72,1.68-2.58,5-2.58a11,11,0,0,1,4.53.86,4.11,4.11,0,0,1,1.83,1.61.36.36,0,0,0,.41.14l4.57-1.12a.38.38,0,0,0,.26-.22.35.35,0,0,0,0-.34,9.27,9.27,0,0,0-3.44-3.18,16,16,0,0,0-8.12-1.76c-3.33-.07-7.63.56-9.61,3.74m-108.19,0a6.18,6.18,0,0,0-.89,3.18c0,5.09,5.12,6,7.29,6.44l2.69.45,3.89.63c1.43.27,2.77.71,2.77,2.25,0,2.73-4.34,3-5.65,3-3.62,0-6.24-1.16-7.4-3.29A.39.39,0,0,0,4.63,32L.25,33.14a.37.37,0,0,0-.23.23.32.32,0,0,0,0,.3c2.21,4,6.17,5.91,12,5.91,7.48,0,11.41-2.58,11.41-7.48,0-4.46-3.56-5.73-7-6.36l-3.59-.64-3-.52c-1.69-.38-3-.79-3-2.25,0-1.72,1.68-2.58,5-2.58a10.92,10.92,0,0,1,4.52.86,4.49,4.49,0,0,1,1.84,1.61.41.41,0,0,0,.41.15l4.6-1.12a.4.4,0,0,0,.26-.23.33.33,0,0,0,0-.33,9.09,9.09,0,0,0-3.47-3.18A15.89,15.89,0,0,0,12,15.75c-3.29,0-7.63.63-9.62,3.81M2.19,3.78H3.92c.86,0,1.72-.38,1.72-1.42S4.74.9,3.88.9H2.19ZM1.45.22H3.77c1.16,0,2.61.45,2.61,2.14C6.38,3.82,5.22,4.45,4,4.45H2.19V8.3H1.45ZM21.38,3.78H23c1.61,0,1.91-.86,1.91-1.42S24.6.94,23,.94H21.38ZM20.64.22h2.13c.63,0,2.88,0,2.88,2.14,0,1.53-1.2,1.94-2.06,2.09L26,8.34h-.86L22.81,4.49H21.38V8.34h-.74Zm23.08,7.6a3.35,3.35,0,0,0,3.44-3.56,3.44,3.44,0,1,0-6.88,0,3.35,3.35,0,0,0,3.44,3.56m0-7.82a4.07,4.07,0,0,1,4.19,4.26,4.19,4.19,0,1,1-8.38,0A4.07,4.07,0,0,1,43.72,0M62.23,8.3H63V4.45H66.8V3.78H63V.9H67.1V.22H62.23Zm19,0h5.13V7.63H82V4.49h3.93V3.82H82V.94h4.19V.22H81.2Zm18.93-1a3,3,0,0,0,2.62,1.24,2.31,2.31,0,0,0,2.5-2.28c0-3-4.19-1.57-4.19-4,0-1,.86-1.53,1.84-1.53a1.77,1.77,0,0,1,1.57.79l.63-.45a2.68,2.68,0,0,0-2.2-1,2.32,2.32,0,0,0-2.58,2.2c0,3.07,4.15,1.76,4.15,4a1.63,1.63,0,0,1-1.83,1.57,2,2,0,0,1-1.84-1Zm19,0a3,3,0,0,0,2.62,1.24,2.32,2.32,0,0,0,2.51-2.28c0-3-4.19-1.57-4.19-4,0-1,.86-1.53,1.83-1.53a1.76,1.76,0,0,1,1.57.79l.64-.45a2.7,2.7,0,0,0-2.21-1,2.31,2.31,0,0,0-2.58,2.2c0,3.07,4.19,1.76,4.19,4a1.63,1.63,0,0,1-1.83,1.57,2,2,0,0,1-1.84-1Zm19.49,1h.75V.22h-.75Zm19.27-.48a3.35,3.35,0,0,0,3.44-3.56,3.44,3.44,0,1,0-6.88,0,3.37,3.37,0,0,0,3.44,3.56m0-7.82a4.07,4.07,0,0,1,4.19,4.26,4.19,4.19,0,1,1-8.38,0A4.07,4.07,0,0,1,157.89,0M176.4,8.3h.75V1.23h0l4.94,7.07h1V.22h-.75V7.29h0L177.38.22h-1Zm25.44-7.25L200,5.5h3.71Zm-.33-.83h.78L205.7,8.3h-.86l-.9-2.13h-4.27l-.9,2.13H198Zm18.4,8.08h4.53V7.63h-3.78V.22h-.75Z"/></g></g></svg>