<svg xmlns="http://www.w3.org/2000/svg" viewBox="0 0 224.47 155.28"><defs><style>.cls-1{fill:#333;}</style></defs><title>systemprofessional</title><g id="Layer_2" data-name="Layer 2"><g id="Layer_1-2" data-name="Layer 1"><path class="cls-1" d="M130.61,4.38c-3,3-5.88,5.9-8.79,8.82a17.41,17.41,0,0,0-22.6,22.47l-8.85,8.7c-6-8.8-6.7-24.88,4.3-35.83C105.09-1.83,120.6-2.18,130.61,4.38Z"/><path class="cls-1" d="M134.24,31.09c7.17,11.23,5,27-4.83,36.39-10.24,9.74-25.36,10.23-35.34,3.77l9-8.83c6.72,2.3,13.08,1.24,18.33-4s6.24-11.54,4-18.43Z"/><path class="cls-1" d="M193.55,97.54c1.42,0,2.79-.06,4.15,0a2.69,2.69,0,0,1,1.29.75c3.12,2.56,6.23,5.13,9.47,7.81l2.06-1.67c2.53-2.07,5-4.17,7.59-6.19a3.62,3.62,0,0,1,1.84-.7c1.14-.11,2.31,0,3.54,0V131.3H217.7V106.11l-9.24,7.54-9.11-7.57v25.18h-5.8Z"/><path class="cls-1" d="M176.92,97.64v5.58H164V111h9.21v5.71h-9.26v9h12.94v5.62H158.15V97.64Z"/><path class="cls-1" d="M55.78,131.32H50V110.93l-12.64-10.4,3.39-4.6,12.1,9.91,12.07-9.73,3.47,4.53L55.78,110.85Z"/><path class="cls-1" d="M126.33,103.28h-9.87V97.65H142v5.57h-9.82v28.09h-5.86Z"/><path class="cls-1" d="M87.07,114.92l-4.2,4c-3.69-3.38-5.07-11.94.41-17.7,4.75-5,13.6-5.44,18.09-.86l-4.06,4.22c-3.83-2.14-7-1.83-9.72.89C85.22,107.92,85,111.31,87.07,114.92Z"/><path class="cls-1" d="M2.93,128.56l4.36-4.15a6.31,6.31,0,0,0,5.81,1.23,9,9,0,0,0,3.73-2.12c2.51-2.42,2.63-5.68.63-9.23l4.22-4.09c3.51,3.25,4.84,11.18.24,16.74A13.16,13.16,0,0,1,2.93,128.56Z"/><path class="cls-1" d="M82.61,128.55,87,124.49a6.48,6.48,0,0,0,6,1.11,8.91,8.91,0,0,0,3.57-2.15c2.44-2.45,2.54-5.53.57-9.19l4.26-4c3.57,3.33,4.73,11.46,0,16.91A13,13,0,0,1,82.61,128.55Z"/><path class="cls-1" d="M7.36,114.88,3.1,119a12.63,12.63,0,0,1-2.85-10.9A12.49,12.49,0,0,1,9.07,97.89a12.91,12.91,0,0,1,12.83,2.5l-4.1,4.19c-4.51-2-7.23-1.76-9.86,1C5.63,107.92,5.43,110.94,7.36,114.88Z"/><path class="cls-1" d="M176.11,139.9h2.11c2.37,3.49,4.76,7,7.36,10.8V140h2.26V155H185.7l-7.24-10.64V155h-2.35Z"/><path class="cls-1" d="M160.05,139.69c4.38.09,7.4,3.37,7.31,7.94s-3.24,7.72-7.75,7.63c-4.28-.09-7.27-3.46-7.18-8.08A7.29,7.29,0,0,1,160.05,139.69Zm-5.17,7.65c0,3.36,2,5.67,5,5.69s5.06-2.27,5.07-5.62c0-3.13-2.08-5.46-4.93-5.51S154.91,144.14,154.88,147.34Z"/><path class="cls-1" d="M30.56,148.92,33.7,155H31l-2.91-5.73H24.31V155H22V140c2.46,0,4.91-.13,7.34,0a4.25,4.25,0,0,1,3.92,3.4,4.77,4.77,0,0,1-2.14,5.14ZM24.31,147c1.59,0,3.05.09,4.49,0a2.38,2.38,0,0,0,2.2-2.42,2.2,2.2,0,0,0-1.95-2.34c-1.55-.13-3.13,0-4.74,0Z"/><path class="cls-1" d="M49,155.26c-4.43,0-7.46-3.23-7.44-7.93a7.46,7.46,0,1,1,14.91,0C56.5,152,53.43,155.26,49,155.26Zm5-7.83c0-3.19-2.12-5.54-5-5.53s-5,2.3-5,5.42c0,3.33,2,5.68,5,5.71S54,150.78,54,147.43Z"/><path class="cls-1" d="M84.26,139.94H94.6v2.18h-8v4h7.2v2.27H86.59v4.33h8.15V155H84.26Z"/><path class="cls-1" d="M209.74,155h-2.57l-1.45-3.71h-5.91L198.43,155h-2.57l5.78-15H204Zm-4.84-6-2.13-5.67L200.68,149Z"/><path class="cls-1" d="M132.43,141l-.9,1.92a17.57,17.57,0,0,0-3-.89,6.87,6.87,0,0,0-2.89.25,2,2,0,0,0-1.11,1.52,2.54,2.54,0,0,0,1,1.72,7.88,7.88,0,0,0,2.18.73,22.53,22.53,0,0,1,2.45.78,3.85,3.85,0,0,1,2.61,4.37,4.15,4.15,0,0,1-3.5,3.64,9.43,9.43,0,0,1-7.69-1.65l1-1.68c1.45.44,2.77.92,4.12,1.22a4.86,4.86,0,0,0,2-.16,1.82,1.82,0,0,0,1.6-1.89,1.87,1.87,0,0,0-1.51-1.85c-1.4-.42-2.84-.75-4.19-1.28a3.84,3.84,0,0,1-2.23-5.56,4.41,4.41,0,0,1,2.17-2A8.9,8.9,0,0,1,132.43,141Z"/><path class="cls-1" d="M102.74,153.41l1.13-1.76A19.07,19.07,0,0,0,107,152.8a9.13,9.13,0,0,0,3,0,1.71,1.71,0,0,0,1.52-1.8,1.84,1.84,0,0,0-1.46-1.88c-1.39-.44-2.81-.79-4.19-1.27a3.62,3.62,0,0,1-2.59-2.78,4.11,4.11,0,0,1,3.14-5.11,9.43,9.43,0,0,1,7.14,1.1c-.28.65-.55,1.26-.85,1.94a14.12,14.12,0,0,0-2.95-.88,7.12,7.12,0,0,0-3.22.38,1.61,1.61,0,0,0-.06,3,10.62,10.62,0,0,0,2.28.81c.86.28,1.75.46,2.57.81a3.86,3.86,0,0,1,2.61,4.37,4.17,4.17,0,0,1-3.5,3.64A9.57,9.57,0,0,1,102.74,153.41Z"/><path class="cls-1" d="M2.14,139.92c2.27,0,4.55-.13,6.81,0a4.61,4.61,0,0,1-.07,9.19c-1.45.12-2.92,0-4.54,0V155H2.14Zm2.22,7.16H7.94a4.49,4.49,0,0,0,.64,0,2.5,2.5,0,0,0,2.24-2.56,2.32,2.32,0,0,0-2.32-2.3c-1.36-.08-2.72,0-4.14,0Z"/><path class="cls-1" d="M67.58,146.3h7v2.26h-7V155H65.22v-15H75.43v2.21H67.58Z"/><path class="cls-1" d="M217.73,139.92h2.21v12.77h4.53V155h-6.74Z"/><path class="cls-1" d="M143.72,155h-2.24V140h2.24Z"/></g></g></svg>