<svg xmlns="http://www.w3.org/2000/svg" viewBox="0 0 224.47 38.46"><defs><style>.cls-1{fill:#333;}</style></defs><title>venus</title><g id="Layer_2" data-name="Layer 2"><g id="Layer_1-2" data-name="Layer 1"><path class="cls-1" d="M201.18,33.39H178.51a.63.63,0,0,1-.61-1,.37.37,0,0,1,.29-.14c.35,0,.7,0,1.05,0h44.7c.51,0,.53,0,.53.56s0,.56-.54.56Z"/><path class="cls-1" d="M23.47,32.27H46.15a.58.58,0,0,1,.58.89.53.53,0,0,1-.33.22,2.72,2.72,0,0,1-.57,0H.76c-.17,0-.48,0-.5-.13a3.61,3.61,0,0,1,0-.87s.15-.1.23-.11a4,4,0,0,1,.49,0Z"/><path class="cls-1" d="M134.93,38.39a4.8,4.8,0,0,1-4.47-2.23A4.74,4.74,0,0,1,133.69,29a6.55,6.55,0,0,1,4.54.65,3.92,3.92,0,0,1,2,3.18,4.85,4.85,0,0,1-4.32,5.54C135.56,38.39,135.23,38.37,134.93,38.39Zm-3.5-5.16.11,0a7,7,0,0,0,.07.92,7.94,7.94,0,0,0,.29,1.09,3.67,3.67,0,0,0,3.65,2.54A2.58,2.58,0,0,0,138,36.18a5.67,5.67,0,0,0,.24-3.85A3.74,3.74,0,0,0,136,29.65a3,3,0,0,0-4,1.4A14.19,14.19,0,0,0,131.43,33.23Z"/><path class="cls-1" d="M75.18,28.82a5.88,5.88,0,0,1,3.49,1A4.26,4.26,0,0,1,80.39,34a4.48,4.48,0,0,1-2.81,3.87,5.81,5.81,0,0,1-5.69-.42A4.77,4.77,0,0,1,71,30.67,5.26,5.26,0,0,1,75.18,28.82ZM78.58,34v-.63a4,4,0,0,0-2.87-3.87A2.94,2.94,0,0,0,72,31.33a5.4,5.4,0,0,0-.17,3.18,3.84,3.84,0,0,0,2.69,3.16,2.84,2.84,0,0,0,3.64-1.51A4.62,4.62,0,0,0,78.58,34Z"/><path class="cls-1" d="M146.21,31.58c0,.65,0,1.2,0,1.74,0,1.15.08,2.29.13,3.44a4.07,4.07,0,0,0,.06.6c.12.51.28.64.8.71a.38.38,0,0,1,.27.14h-3.23c.1-.08.12-.12.16-.12.81-.18.86-.22.87-1.06.06-2.53.1-5.05.15-7.57a1.4,1.4,0,0,1,0-.29c0-.11.07-.29.13-.3a.47.47,0,0,1,.34.12l2.62,2.61,4,4a2,2,0,0,0,.31.24,2.43,2.43,0,0,0,.07-.47c0-1.71-.06-3.43-.11-5.14,0-.8-.21-1-1-1.05-.05,0-.1,0-.14-.12h3.13a1.55,1.55,0,0,1-.29.13c-.52.12-.68.28-.71.82,0,.75,0,1.49,0,2.23,0,1.16,0,2.32-.05,3.48,0,.74,0,1.49-.07,2.23,0,.13-.08.35-.15.37a.63.63,0,0,1-.43-.13c-.59-.53-1.18-1.07-1.75-1.63-1.57-1.55-3.13-3.12-4.7-4.69A4,4,0,0,0,146.21,31.58Z"/><path class="cls-1" d="M94.77,29h3.7l0,.08a2.72,2.72,0,0,1-.38.11.57.57,0,0,0-.52.58,11.17,11.17,0,0,0-.08,1.29c0,1.5,0,3,.13,4.49a2.18,2.18,0,0,0,1.65,2.08,2.47,2.47,0,0,0,2.63-.58,2.34,2.34,0,0,0,.62-1.28c.1-1.46.09-2.93.11-4.4,0-.47,0-.95,0-1.42s-.14-.67-.69-.77a.55.55,0,0,1-.35-.17h3.14v.07l-.28.1c-.51.1-.64.25-.64.76,0,1.4,0,2.81,0,4.21a8.65,8.65,0,0,1-.4,2.25,2.86,2.86,0,0,1-2.29,1.85A5.72,5.72,0,0,1,98,38.13a3,3,0,0,1-2-2.82c-.08-1.58,0-3.16,0-4.74,0-.15,0-.3,0-.45,0-.63-.2-.83-.83-.92l-.3-.07Z"/><path class="cls-1" d="M64.7,29.65c-.11-.32-.17-.58-.27-.82a2.12,2.12,0,0,0-3.19-.59,1.57,1.57,0,0,0,.11,2.22c.76.7,1.58,1.32,2.35,2a3.82,3.82,0,0,1,1.47,2.83,3,3,0,0,1-2.37,3,5.91,5.91,0,0,1-3.12-.13.54.54,0,0,1-.47-.59c0-.6,0-1.19,0-1.79a1.07,1.07,0,0,1,.06-.29h.1a3.57,3.57,0,0,1,.11.47,2,2,0,0,0,1.4,1.73,2.22,2.22,0,0,0,2.31-.45,1.76,1.76,0,0,0,.11-2.36,10,10,0,0,0-1.48-1.43,7.1,7.1,0,0,1-2-2.21,2.66,2.66,0,0,1,1.75-3.92,5.78,5.78,0,0,1,2.92,0c.15,0,.36.23.37.35,0,.58,0,1.16,0,1.74C64.83,29.5,64.77,29.54,64.7,29.65Z"/><path class="cls-1" d="M160,35.92a1.39,1.39,0,0,1,.1.33,1.71,1.71,0,0,0,1.19,1.45,2.15,2.15,0,0,0,2.37-.42,1.47,1.47,0,0,0,0-2.08,14.27,14.27,0,0,0-1.85-1.3,3.36,3.36,0,0,1-1.71-2.1A2.4,2.4,0,0,1,162,29a5.93,5.93,0,0,1,3,0c.1,0,.24.14.24.22,0,.53,0,1.07,0,1.6l-.13,0a1.11,1.11,0,0,1-.13-.27,1.53,1.53,0,0,0-1.39-1.17,2.21,2.21,0,0,0-1.62.33,1.21,1.21,0,0,0-.19,1.84,13.08,13.08,0,0,0,1.34,1,13.41,13.41,0,0,1,1.78,1.38,2.43,2.43,0,0,1,.41,2.76,2.67,2.67,0,0,1-2.29,1.64,6.22,6.22,0,0,1-2.68-.17c-.18-.06-.44-.28-.45-.43,0-.6,0-1.2.07-1.8Z"/><path class="cls-1" d="M117,30.64c-.15-.83-.77-.88-1.41-.91-.48,0-1,0-1.42-.06-.29,0-.43.08-.43.39,0,2.31,0,4.62,0,6.93,0,.69.18,1.14,1,1.09.06,0,.12,0,.17.13h-3.8c0-.06,0-.1,0-.1.74-.17.8-.2.81-1,0-2.35,0-4.7.06-7,0-.28-.12-.39-.4-.38-.6,0-1.21.05-1.82.06a1.11,1.11,0,0,0-1.15.66.55.55,0,0,1-.14.12l-.11,0c.11-.5.22-1,.34-1.49a.28.28,0,0,1,.23-.1c1,0,2.1.1,3.15.11,1.54,0,3.08,0,4.63,0,.24,0,.34.07.34.31,0,.44,0,.87,0,1.31Z"/><path class="cls-1" d="M84.82,38.14a1.5,1.5,0,0,1,.27-.07.6.6,0,0,0,.63-.65c0-.56.1-1.13.11-1.69,0-1.69,0-3.38,0-5.07v-.28c-.09-.94-.09-.94-1-1.23,0,0-.06,0-.14-.11h3.79l0,.07a2.46,2.46,0,0,1-.45.11.62.62,0,0,0-.61.63c0,.16,0,.32,0,.49q0,2.77,0,5.55a3.91,3.91,0,0,0,.06.84c.12.64.26.78.9.83a15.22,15.22,0,0,0,1.91,0,1,1,0,0,0,.9-.71c0-.12.1-.23.14-.35l.15,0c0,.3,0,.59-.11.88-.17.87-.18.87-1.09.87l-5.26,0S85,38.2,84.82,38.14Z"/><path class="cls-1" d="M121.6,38.18c.77-.29.84-.33.84-1.25,0-2.34,0-4.69,0-7a.6.6,0,0,0-.57-.66.56.56,0,0,1-.3-.16H125l0,.05-.17.08c-.62.16-.73.27-.73.9,0,2.27,0,4.54,0,6.8,0,1,.15,1.1,1.12,1.18,0,0,0,0,.08.1Z"/><path class="cls-1" d="M119.35,7.28c-.53,1.08-1.06,2.17-1.6,3.25q-1.68,3.45-3.38,6.88c-.42.86-.84,1.72-1.28,2.56-.27.52-.55.54-.84,0-.59-1.05-1.17-2.12-1.71-3.2q-2.27-4.55-4.51-9.11l-.14-.25a3.72,3.72,0,0,0-.15.52c-.19,1.47-.37,2.94-.57,4.4s-.4,2.83-.59,4.24c-.09.73-.16,1.47-.2,2.21a.85.85,0,0,0,.8.94c.35.06.72.08,1.08.14a1.74,1.74,0,0,1,.38.2c-.14.1-.27.28-.42.28-.66,0-1.32,0-2,0l-3,0a4.93,4.93,0,0,1-.77,0c-.12,0-.23-.18-.34-.27.11-.07.21-.16.32-.22a.46.46,0,0,1,.2,0c1.13,0,1.44-.48,1.61-1.4.33-1.78.56-3.58.85-5.38.24-1.54.5-3.07.74-4.61.19-1.23.35-2.45.54-3.68.22-1.42.43-2.84.68-4.26a.76.76,0,0,1,.41-.51c.33-.13.47.2.59.43.57,1.12,1.13,2.26,1.69,3.39l5.35,10.86c.1.2.22.39.39.68.44-.9.84-1.68,1.22-2.46.74-1.54,1.49-3.07,2.23-4.61,1-2.11,2-4.22,3-6.32.28-.57.55-1.14.86-1.69.09-.14.34-.32.45-.29a.68.68,0,0,1,.4.44c.14.63.23,1.27.33,1.91l.63,4.23c.18,1.29.35,2.58.54,3.87.24,1.6.5,3.19.74,4.78.13.83.24,1.65.38,2.48a6,6,0,0,0,.24.93c.33,1.07,1.27,1.12,2.15,1.25.2,0,.41,0,.61,0a.3.3,0,0,1,.21.18.34.34,0,0,1-.17.24,1.07,1.07,0,0,1-.44.07l-5.47-.12a2,2,0,0,1-.48-.08.45.45,0,0,1-.25-.2.3.3,0,0,1,.12-.26c.31-.15.29-.42.27-.66-.08-.82-.17-1.64-.28-2.45s-.26-1.86-.39-2.8c-.2-1.42-.41-2.85-.6-4.27-.08-.59-.15-1.18-.23-1.76a5.59,5.59,0,0,0-.12-.56Z"/><path class="cls-1" d="M152.3,20.6c-1.47-.1-3-.22-4.43-.27-.9,0-1.81,0-2.72.05a3.86,3.86,0,0,1-.76,0c-.14,0-.25-.18-.38-.27a1.36,1.36,0,0,1,.34-.21,4,4,0,0,1,.76-.1.67.67,0,0,0,.63-.59,5.25,5.25,0,0,0,.18-1.11c0-3.71.06-7.42.08-11.12,0-.62,0-1.24-.06-1.86a1.12,1.12,0,0,0-1.07-1.23c-.26,0-.52,0-.77-.09a2.67,2.67,0,0,1-.45-.22,1.51,1.51,0,0,1,.48-.23c.46,0,.92,0,1.38,0h6.77a18.37,18.37,0,0,1,4.5.43c3,.75,5.11,2.44,5.87,5.5a8.67,8.67,0,0,1-2.56,9,8.11,8.11,0,0,1-3.61,1.83,15.94,15.94,0,0,1-2.06.4C153.73,20.55,153,20.55,152.3,20.6ZM149.16,11h.07c0,2.12,0,4.24,0,6.35,0,.59.06,1.22.72,1.51a5.22,5.22,0,0,0,1.07.37,9.52,9.52,0,0,0,4.56-.3,5.32,5.32,0,0,0,3.78-4.33,10.83,10.83,0,0,0,0-4.17,6.53,6.53,0,0,0-2.48-4.16A10,10,0,0,0,150,4.57c-.67,0-.81.24-.81.91Z"/><path class="cls-1" d="M40,8.23c0,.65,0,1.2,0,1.76,0,1.13.06,2.26.1,3.4,0,1.61.1,3.22.18,4.84a3.18,3.18,0,0,0,.21.9c.23.7.87.65,1.43.73a2.61,2.61,0,0,1,.4,0c.12.05.2.18.3.27a1.54,1.54,0,0,1-.29.23.87.87,0,0,1-.32,0H36.58a.84.84,0,0,1-.32,0,1.25,1.25,0,0,1-.27-.25c.1-.08.17-.22.28-.24.29-.06.58-.07.88-.11A.88.88,0,0,0,38,19a8.93,8.93,0,0,0,.1-1c0-2.54.08-5.07.12-7.6,0-2.21.06-4.42.13-6.63A1,1,0,0,1,38.66,3c.27-.19.53.09.73.28.91.9,1.81,1.82,2.71,2.72l3.44,3.41,5.67,5.67.71.72.14,0c0-.45,0-.89,0-1.34,0-1.34-.07-2.67-.11-4,0-1.7-.08-3.4-.15-5.09,0-1-.39-1.36-1.41-1.44a1.91,1.91,0,0,1-.48,0,2.13,2.13,0,0,1-.42-.27c.13-.09.27-.24.41-.24.51,0,1,0,1.54,0h2.91a11.62,11.62,0,0,1,1.18,0c.12,0,.23.17.34.26-.11.08-.21.21-.33.23-1.43.27-1.62.48-1.64,2,0,1.78,0,3.56,0,5.34-.05,2.84-.11,5.68-.16,8.52,0,.13,0,.27,0,.4-.08.63-.43.8-1,.47a2.55,2.55,0,0,1-.38-.29l-3.76-3.56c-1.22-1.16-2.46-2.3-3.65-3.49-1.49-1.5-2.94-3-4.42-4.54A5,5,0,0,0,40,8.23Z"/><path class="cls-1" d="M12,15.42c.24-.61.48-1.22.73-1.82,1-2.6,2.1-5.19,3.13-7.8.48-1.21.94-2.43,1.37-3.65.33-.94.08-1.25-.93-1.28a1.42,1.42,0,0,1-.36,0,1.61,1.61,0,0,1-.35-.25c.12-.09.22-.24.34-.25a11.42,11.42,0,0,1,1.17,0h4.42a.94.94,0,0,1,.29,0c.13.07.24.17.36.25a1.19,1.19,0,0,1-.34.26,2.24,2.24,0,0,1-.52,0,2.09,2.09,0,0,0-1.69,1.4c-.6,1.29-1.16,2.6-1.74,3.9L13.41,16.3c-.56,1.26-1.11,2.53-1.68,3.8a1.39,1.39,0,0,1-.18.31c-.31.49-.73.49-1,0q-1.06-2.46-2.1-4.94c-.36-.84-.7-1.69-1-2.54-.86-2.07-1.71-4.15-2.57-6.22C4.32,5.35,3.8,4,3.23,2.72a5.35,5.35,0,0,0-.75-1.14A2.78,2.78,0,0,0,.6.87a.85.85,0,0,0-.16,0C.24.86,0,.9,0,.6S.23.34.42.34H7.68a1.77,1.77,0,0,1,.52,0,.37.37,0,0,1,.21.25c0,.06-.13.19-.23.21S7.7.87,7.46.9c-.51.07-.75.32-.66.82a8.94,8.94,0,0,0,.44,1.59c.36,1,.77,1.95,1.14,2.93q1.35,3.6,2.71,7.22c.25.66.52,1.31.79,2Z"/><path class="cls-1" d="M72.4,10c0-1.57,0-3.15,0-4.73,0-.9-.34-1.26-1.24-1.36a3.55,3.55,0,0,1-.57-.06,2,2,0,0,1-.42-.24c.15-.09.29-.25.45-.26.49,0,1,0,1.49,0H75c.43,0,.86,0,1.29,0,.12,0,.24.17.35.26-.11.09-.22.23-.35.26-.36.1-.74.12-1.09.25a.67.67,0,0,0-.35.48,14.9,14.9,0,0,0-.16,1.89c0,2.41,0,4.82,0,7.23a7.71,7.71,0,0,1-1.3,4.47,5.77,5.77,0,0,1-2.84,2.06,10.32,10.32,0,0,1-6.1.13,5.28,5.28,0,0,1-3.82-3.41A10.46,10.46,0,0,1,60,13.17V5.89A5.83,5.83,0,0,0,60,5.05c-.11-.82-.28-1-1.35-1.18-.18,0-.38,0-.56,0s-.21-.16-.31-.24c.1-.09.19-.25.29-.26.57,0,1.13,0,1.7,0h3.81c.44,0,.89,0,1.33,0,.13,0,.24.17.35.25a1.23,1.23,0,0,1-.35.26c-.38.12-.78.17-1.15.3a.57.57,0,0,0-.27.41c-.07.83-.16,1.66-.17,2.49,0,2.36,0,4.72,0,7.08a6.14,6.14,0,0,0,.84,3.32,4,4,0,0,0,3.11,1.86,5,5,0,0,0,3.09-.59,3.72,3.72,0,0,0,1.89-3c.14-1.89.16-3.79.23-5.68Z"/><path class="cls-1" d="M23.89,11.62c0-2.13,0-4.26,0-6.39,0-.89-.26-1.19-1.15-1.34-.25,0-.52,0-.77-.06s-.23-.17-.35-.26c.12-.09.24-.25.36-.25.53,0,1.06,0,1.58,0s.87,0,1.3,0c2.25,0,4.51,0,6.77,0A6.26,6.26,0,0,0,33,3.19c.38-.08.44.13.42.39-.09.89-.19,1.79-.29,2.68a.38.38,0,0,1,0,.16,2.73,2.73,0,0,1-.31.27,2.11,2.11,0,0,1-.18-.33,4.61,4.61,0,0,0-.34-1,1,1,0,0,0-.68-.43c-1.34-.11-2.67-.17-4-.23a.36.36,0,0,0-.43.41c0,1.7,0,3.39,0,5.09,0,.31.14.48.47.46,1.35,0,2.71-.05,4-.13a3.29,3.29,0,0,0,.91-.4c.11,0,.3-.12.35-.07a.51.51,0,0,1,.14.38c-.08,1-.18,1.93-.27,2.89,0,0,0,.09,0,.12s-.17.28-.26.42a2,2,0,0,1-.3-.42,4.72,4.72,0,0,0-.21-.88A1.26,1.26,0,0,0,30.89,12c-1.11,0-2.22,0-3.33-.06-.32,0-.44.11-.44.45,0,1.59,0,3.18,0,4.77,0,1,.44,1.76,1.57,1.81a19.67,19.67,0,0,0,2.87.05c1.13-.11,1.55-.46,1.84-1.65a1.41,1.41,0,0,1,.07-.31,1.61,1.61,0,0,1,.28-.24c.07.1.21.19.21.29a8,8,0,0,1,0,1.09,13.64,13.64,0,0,1-.23,1.56c-.15.61-.26.68-.91.68-1.35,0-2.7,0-4.05,0H22.65a.94.94,0,0,1-.29,0,3.3,3.3,0,0,1-.39-.26c.12-.09.24-.24.37-.26,1.24-.14,1.52-.42,1.53-1.71,0-2.18,0-4.36,0-6.55Z"/><path class="cls-1" d="M200.79,14.71h-2.43a.52.52,0,0,0-.56.36c-.45,1.12-.92,2.23-1.36,3.36a3.12,3.12,0,0,0-.15.75c0,.38.26.65.73.69a2.33,2.33,0,0,1,.53,0c.11,0,.2.18.3.27-.1.08-.2.22-.31.22-.56,0-1.13,0-1.7,0l-3.44,0a.86.86,0,0,1-.36,0c-.1-.05-.23-.17-.23-.25s.14-.22.24-.24a6.56,6.56,0,0,1,.76-.09,1.63,1.63,0,0,0,1.35-1c.44-.88.85-1.77,1.24-2.67.83-1.9,1.65-3.82,2.48-5.73l2.89-6.66a3.84,3.84,0,0,1,.33-.6c.25-.35.64-.36.84,0s.53,1.06.76,1.6c1.49,3.46,3,6.92,4.47,10.37.52,1.18,1.07,2.35,1.64,3.51a2.09,2.09,0,0,0,2,1.21c.17,0,.48.13.48.2,0,.33-.27.31-.5.31l-4.83,0a3.5,3.5,0,0,1-.64-.08c-.07,0-.18-.1-.19-.17a.26.26,0,0,1,.14-.2c.44-.15.39-.41.24-.77-.55-1.32-1.08-2.66-1.6-4a.6.6,0,0,0-.64-.44Zm.09-7.19a2,2,0,0,0-.24.39c-.68,1.68-1.35,3.37-2,5.05-.16.4-.12.47.32.47h3.69c.48,0,.54-.11.36-.56-.52-1.34-1.05-2.68-1.57-4C201.25,8.44,201.08,8,200.88,7.52Z"/><path class="cls-1" d="M185.7,3a25,25,0,0,1,5.39.53c1,.19.95.19.9,1.18s-.1,1.88-.15,2.82a.8.8,0,0,1-.06.39.36.36,0,0,1-.29.15c-.07,0-.17-.11-.21-.19a1.07,1.07,0,0,1-.06-.32,3.1,3.1,0,0,0-2.43-2.87,9.69,9.69,0,0,0-5.39-.16,4.86,4.86,0,0,0-3.39,3,9.68,9.68,0,0,0-.55,5.35,7.23,7.23,0,0,0,2.3,4.38,6.84,6.84,0,0,0,4.78,1.94,12.34,12.34,0,0,0,2.65-.25,3.17,3.17,0,0,0,2.32-2.46c.05-.17.05-.44.31-.35a.55.55,0,0,1,.25.46c-.08.73-.2,1.46-.31,2.19a2.1,2.1,0,0,1-.06.24c-.19.94-.45,1.23-1.4,1.33-1.29.14-2.6.3-3.9.31a12.85,12.85,0,0,1-5.67-1.13,8,8,0,0,1-4.65-5.47,8.91,8.91,0,0,1,.51-6.1,8.1,8.1,0,0,1,4.25-4.06A12.27,12.27,0,0,1,185.7,3Z"/><path class="cls-1" d="M134.39,7.64c0,.83,0,1.65,0,2.47,0,.37.13.56.52.54,1.32,0,2.64-.05,4-.13a3.2,3.2,0,0,0,.95-.38c.11,0,.27-.15.31-.11a.46.46,0,0,1,.16.33c-.08,1-.16,2.06-.26,3.09,0,.14-.18.26-.28.38a1.48,1.48,0,0,1-.23-.38,5.16,5.16,0,0,0-.17-.78,1.25,1.25,0,0,0-1.2-.68c-1-.06-2.05-.07-3.08-.09-.64,0-.68,0-.68.65,0,1.56,0,3.13,0,4.69A1.55,1.55,0,0,0,135.86,19a9.86,9.86,0,0,0,3.47,0,1.56,1.56,0,0,0,1.24-1.14c.07-.24.1-.5.19-.74a.36.36,0,0,1,.25-.2c.06,0,.19.14.2.23a9.26,9.26,0,0,1,0,1.29c-.07.53-.19,1.05-.29,1.58a.53.53,0,0,1-.55.45H137l-1.05,0H130.1a1.2,1.2,0,0,1-.33,0c-.18-.07-.49-.16-.5-.25,0-.32.29-.25.48-.26,1-.06,1.2-.23,1.36-1.24a2.58,2.58,0,0,0,0-.4c0-3.88.07-7.76.09-11.64,0-.52,0-1-.07-1.57a1.09,1.09,0,0,0-1.07-1.14c-.31,0-.62-.05-.93-.1-.1,0-.19-.14-.28-.22.09-.07.18-.21.28-.21.55,0,1.11,0,1.66,0,1.17,0,2.35,0,3.53,0H139a10.49,10.49,0,0,0,1.24-.15c.32-.05.45.08.42.38-.1.83-.19,1.66-.28,2.49,0,.12,0,.26-.06.35s-.19.15-.29.23a1.1,1.1,0,0,1-.17-.29c-.15-1.17-.51-1.54-1.75-1.61-1.09-.06-2.19-.06-3.28-.09-.33,0-.47.12-.46.46C134.4,6,134.39,6.81,134.39,7.64Z"/><path class="cls-1" d="M79.59,18v-1.5a1,1,0,0,1,.07-.43c.07-.12.23-.19.34-.28a.88.88,0,0,1,.19.32,4.34,4.34,0,0,0,.75,2.14,3,3,0,0,0,1.68,1.05,6.16,6.16,0,0,0,1.76.18,2.85,2.85,0,0,0,2.92-3.25,3,3,0,0,0-1.46-2.12c-.74-.52-1.56-.92-2.3-1.43a18.48,18.48,0,0,1-2.26-1.76A4.36,4.36,0,0,1,80,7.33a4.16,4.16,0,0,1,2.87-3.74A7.44,7.44,0,0,1,86.61,3c.85.09,1.71.21,2.56.31a.43.43,0,0,1,.42.53c0,.94-.06,1.88-.12,2.82,0,.14-.18.28-.28.42-.09-.12-.23-.24-.25-.37A2.92,2.92,0,0,0,86,4.21a4,4,0,0,0-2.7.78,2.17,2.17,0,0,0-.15,3.15,16.61,16.61,0,0,0,2.35,1.62A14.53,14.53,0,0,1,88.62,12,5.15,5.15,0,0,1,90,16.38a5.35,5.35,0,0,1-4.64,4.24,14.88,14.88,0,0,1-4.66-.24l-.23-.07c-1-.35-1-.35-1-1.35V18Z"/><path class="cls-1" d="M221.65,20.45c-2,0-4-.11-6-.13-1,0-2.06.05-3.08.07a1.12,1.12,0,0,1-.41,0c-.12,0-.21-.16-.32-.24.1-.09.19-.21.31-.24.27-.06.56-.07.84-.12a.71.71,0,0,0,.61-.66,14.92,14.92,0,0,0,.16-1.64c0-3.44.06-6.87.07-10.31,0-.7,0-1.4-.06-2.1a1.12,1.12,0,0,0-1.08-1.18c-.23,0-.46,0-.68-.09a2,2,0,0,1-.37-.22c.13-.08.26-.22.4-.23.4,0,.81-.05,1.21-.05l5.31,0a1.08,1.08,0,0,1,.36,0,.93.93,0,0,1,.3.22c-.09.07-.18.2-.28.22a7.89,7.89,0,0,1-.85.09c-.62.05-.87.25-1,.86A10,10,0,0,0,217,6.18q0,4.75,0,9.51c0,.71.09,1.42.17,2.13s.55,1.07,1.42,1.11c1.17.05,2.35.05,3.52,0a1.89,1.89,0,0,0,1.73-1.66,1.83,1.83,0,0,1,.34-.56c.08.19.25.4.23.58-.11.89-.24,1.79-.43,2.66a.68.68,0,0,1-.5.41c-.61.05-1.22,0-1.82,0Z"/><path class="cls-1" d="M169.34,3.34c1,0,2.1,0,3.16,0,.14,0,.28.13.42.2-.13.09-.26.18-.4.26s-.08,0-.12,0C171.12,4,171,4.2,171,5.44,170.93,7.28,171,9.13,171,11q0,3.36,0,6.71a5.81,5.81,0,0,0,.23,1.55,1,1,0,0,0,.63.51c.41.11.86.08,1.28.15.14,0,.25.16.38.25-.13.09-.26.24-.39.24-1.4,0-2.79-.06-4.18-.06-.85,0-1.7.05-2.55.07a.58.58,0,0,1-.32,0c-.1-.05-.16-.17-.25-.26.09-.07.17-.18.27-.2a6.31,6.31,0,0,1,.76-.1.92.92,0,0,0,.81-1c.06-1.09.12-2.18.12-3.27,0-3.19,0-6.39,0-9.58a8.09,8.09,0,0,0-.1-1.2.92.92,0,0,0-.94-.88,5.06,5.06,0,0,1-.68-.09,1.18,1.18,0,0,1-.31-.24c.1-.07.2-.19.31-.2.48,0,1,0,1.46,0Z"/></g></g></svg>