<svg xmlns="http://www.w3.org/2000/svg" viewBox="0 0 224.47 141.39"><defs><style>.cls-1{fill:#333;}</style></defs><title>wella</title><g id="Layer_2" data-name="Layer 2"><g id="Layer_1-2" data-name="Layer 1"><path class="cls-1" d="M0,82c2.26,0,4.52,0,6.78,0A1,1,0,0,1,8,82.8Q11.82,95,15.73,107.18c.09.28.2.56.36,1l.43-1.08q3.84-10.62,7.69-21.22a9.63,9.63,0,0,1,.88-1.83A3.09,3.09,0,0,1,28,82.49c1.2,0,2.4.09,3.6.06a2.82,2.82,0,0,1,2.78,2c.57,1.38,1,2.8,1.53,4.21q3.3,9.28,6.62,18.57c.09.24.19.49.37.92l1.2-3.56c2.4-7.3,4.82-14.59,7.21-21.89.2-.62.44-.85,1.12-.84,2.2.05,4.4,0,6.69,0l-2.49,7.5q-4.82,14.37-9.59,28.75a1.1,1.1,0,0,1-1.27.89q-2.82-.08-5.64,0a1.08,1.08,0,0,1-1.22-.86q-4.49-12.36-9-24.71c-.12-.33-.25-.65-.45-1.17-.18.42-.3.68-.4.94q-4.76,12.45-9.48,24.9a1.13,1.13,0,0,1-1.28.9c-1.8-.06-3.6-.05-5.39,0a.94.94,0,0,1-1.1-.77q-5.15-16-10.32-31.94C1,85,.49,83.54,0,82.11Z"/><path class="cls-1" d="M141.17,141.39l-1.58-.34a6.14,6.14,0,0,1-5.14-5,12.23,12.23,0,0,1,.07-5.58,5.91,5.91,0,0,1,4.57-4.52,14.21,14.21,0,0,1,6.55-.1,5.92,5.92,0,0,1,5.14,5.63,16.06,16.06,0,0,1-.06,4.38c-.48,3.08-2.61,4.93-5.84,5.37a6.66,6.66,0,0,0-.77.19Zm8.08-8h-.06c0-.41,0-.82,0-1.23a4.88,4.88,0,0,0-4.33-4.94,11.56,11.56,0,0,0-5.1.12,4.34,4.34,0,0,0-3.53,3.54,16.93,16.93,0,0,0-.13,4.44,4.52,4.52,0,0,0,4.09,4.23,15.8,15.8,0,0,0,4.29.07c2.85-.35,4.17-1.72,4.65-4.53C149.22,134.54,149.21,134,149.25,133.39Z"/><path class="cls-1" d="M46.24,141.39l-1.41-.32a6.18,6.18,0,0,1-5.32-5.42,12.87,12.87,0,0,1,.12-5.1,5.91,5.91,0,0,1,4.64-4.64,14.4,14.4,0,0,1,6.72,0,6,6,0,0,1,4.9,5.23,12.38,12.38,0,0,1-.22,5.58c-.84,2.83-3,4.1-5.71,4.52-.27,0-.52.13-.78.19Zm1.42-1.5v-.12c.39,0,.77,0,1.15,0,3-.17,4.92-1.56,5.34-4.28a15.37,15.37,0,0,0-.07-4.44,4.34,4.34,0,0,0-3.63-3.72,11.75,11.75,0,0,0-5.5,0A4.59,4.59,0,0,0,41.29,131a10.53,10.53,0,0,0,0,4.77,4.55,4.55,0,0,0,3.55,3.63C45.77,139.67,46.72,139.74,47.66,139.89Z"/><path class="cls-1" d="M99,141.39c-1.17-.31-2.37-.56-3.51-.95-1.3-.45-1.31-.56-.84-1.9.94.33,1.86.72,2.81,1a9,9,0,0,0,5,.06,5.22,5.22,0,0,0,2.14-1.23,2,2,0,0,0-.7-3.46c-1.47-.54-3-.78-4.56-1.18a16.81,16.81,0,0,1-2.72-.84,3.4,3.4,0,0,1-1.06-5.59,5.66,5.66,0,0,1,3.63-1.67,14.43,14.43,0,0,1,5.66.42c1.37.4,1.38.39,1.09,1.82a23.19,23.19,0,0,0-3.54-.73,20.22,20.22,0,0,0-4,.25,3.19,3.19,0,0,0-1.54.85,1.8,1.8,0,0,0,.5,3.21c1.49.54,3.1.77,4.65,1.17a17.18,17.18,0,0,1,2.56.77,3.61,3.61,0,0,1,1.5,5.68,5.87,5.87,0,0,1-3.89,2.16c-.24.05-.46.13-.7.19Z"/><path class="cls-1" d="M216.65,141.39c-1.2-.32-2.42-.57-3.6-1s-1.28-.53-.74-2a10.48,10.48,0,0,0,5.12,1.36,13.7,13.7,0,0,0,3.13-.4,3.78,3.78,0,0,0,1.63-1,2,2,0,0,0-.69-3.51,46.18,46.18,0,0,0-4.56-1.18,19.06,19.06,0,0,1-2.72-.84,3.36,3.36,0,0,1-1.14-5.48,5.24,5.24,0,0,1,3.27-1.69,13.92,13.92,0,0,1,7.46.79l-.22,1.37a24,24,0,0,0-3.5-.73,20.33,20.33,0,0,0-4.12.25,3.25,3.25,0,0,0-1.59.91,1.78,1.78,0,0,0,.53,3.12,34.18,34.18,0,0,0,3.92,1,27.36,27.36,0,0,1,3.14.84,3.7,3.7,0,0,1,1.18,6.35,6.27,6.27,0,0,1-3.42,1.59c-.27,0-.53.12-.79.18Z"/><path class="cls-1" d="M114.54,141.39c-1.18-.31-2.38-.55-3.53-.94-1.35-.46-1.33-.52-.88-1.91.94.33,1.86.73,2.82,1a9,9,0,0,0,5.38-.06,4.46,4.46,0,0,0,1.86-1.24,2,2,0,0,0-.73-3.29,34.32,34.32,0,0,0-3.92-1.07,25.36,25.36,0,0,1-3.36-1,3.34,3.34,0,0,1-.88-5.82,7.06,7.06,0,0,1,3-1.36,13,13,0,0,1,7.41.77l-.24,1.36a25.31,25.31,0,0,0-3.56-.73,20.17,20.17,0,0,0-4,.25,3.28,3.28,0,0,0-1.54.85,1.79,1.79,0,0,0,.44,3.18,31.8,31.8,0,0,0,3.92,1,25.45,25.45,0,0,1,3.14.84,3.71,3.71,0,0,1,1.15,6.4,6.38,6.38,0,0,1-3.36,1.54c-.26,0-.52.12-.79.18Z"/><path class="cls-1" d="M27,50a3,3,0,0,1-1.34-2.14,1.77,1.77,0,0,1,.62-1.65c1.49-1.25,1.41-2.31,0-3.63a9.84,9.84,0,0,1-1.93-2.38c-.76-1.37-.34-2.38.95-3.25q4.19-2.84,8.31-5.77a5.64,5.64,0,0,0,2.27-3.91c.22-1.42.57-2.82.88-4.22a16.46,16.46,0,0,1,8.77-11.29,2.78,2.78,0,0,0,1.28-1.45A12.29,12.29,0,0,1,52,3.57,22.53,22.53,0,0,1,66.3.07c6.78.49,12.7,3.33,18.23,7s11.18,7.75,16.77,11.62a69,69,0,0,0,13.85,7.58,29.9,29.9,0,0,0,25.34-1,102,102,0,0,1,15.07-6.21,31.4,31.4,0,0,1,11.05-1.76c5.34.3,10.18,3.78,11.67,8.52a8.77,8.77,0,0,1,.32,1.83,1.9,1.9,0,0,1-.24.73,3.09,3.09,0,0,1-.68-.34,11.77,11.77,0,0,1-.86-.87c-3-3.1-6.68-4-10.83-3.45-5.46.72-10.47,2.82-15.48,4.94-4.33,1.84-8.62,3.77-13,5.44-10.43,4-20.51,2.87-30-2.77-5.82-3.45-11.39-7.32-17-11.08-4.08-2.71-8-5.61-12.12-8.3a26.48,26.48,0,0,0-10.8-4.38A19,19,0,0,0,54.69,9.73a13.2,13.2,0,0,0-3.55,3.32,17.56,17.56,0,0,1-2.31,2.25c-.53.46-1.16.81-1.73,1.23-3.56,2.65-5.7,6.06-5.78,10.62a7.08,7.08,0,0,1-2.76,5.67c-2.33,1.83-4.67,3.66-7.06,5.4-1.5,1.09-1.61,1.59-.24,2.9a4.06,4.06,0,0,0,.75.62c1.85,1,1.83,3.15.69,4.64-.89,1.18-.78,1.72.54,2.5.16.09.35.16.5.26.54.37.55.83.06,1.27a6,6,0,0,0-.9.92A1.18,1.18,0,0,0,33,53.11c.78.71.75,1.43.3,2.45a12.27,12.27,0,0,0-1,2.72,2.11,2.11,0,0,0,2.24,2.77c1.9,0,3.8-.13,5.7-.24A51.55,51.55,0,0,1,53,61.33c6.58,1.29,10.16,5.43,11.48,11.79a19.9,19.9,0,0,1,.36,2.42c0,.21-.19.44-.3.66-.22-.11-.54-.16-.66-.34a15.85,15.85,0,0,1-1-1.7c-2.94-5.72-7.76-8.55-14-8.87-3.35-.16-6.73.14-10.1.23-2.77.08-5.55.34-8.31.21-3.25-.15-4.94-2.27-4.69-5.52a27.48,27.48,0,0,1,.61-3.61,1.88,1.88,0,0,0-.62-2,1.65,1.65,0,0,1-.3-2.56C26,51.37,26.46,50.69,27,50Z"/><path class="cls-1" d="M69,17.07a17.11,17.11,0,0,1,9.15,2.49,78.12,78.12,0,0,1,8,5.57c6,4.81,12,9.61,18.74,13.46a49.12,49.12,0,0,0,13.57,5.65A32.79,32.79,0,0,0,137.56,43c5.71-2.15,11.36-4.49,17-6.83a62.38,62.38,0,0,1,14.63-4.42c4.24-.63,8.37-.33,12.12,2,3.32,2.08,4.93,5.26,5.58,9a1.81,1.81,0,0,1,0,.73,6.08,6.08,0,0,1-.39.91,3,3,0,0,1-.73-.54,12.49,12.49,0,0,0-8.53-5.5,21.71,21.71,0,0,0-8.56.69A90.84,90.84,0,0,0,153,45a102.29,102.29,0,0,1-19.45,7c-8.33,1.92-16.42,1.57-24.32-2a55.26,55.26,0,0,1-15-10.13c-4.24-4-8.46-8-12.72-12a31.08,31.08,0,0,0-7.26-5.08,17.56,17.56,0,0,0-11.88-1.68,3,3,0,0,1-.88.13,6.12,6.12,0,0,1-1-.32c.15-.33.22-.75.47-1A11.9,11.9,0,0,1,69,17.07Z"/><path class="cls-1" d="M77.08,37.17a12.9,12.9,0,0,1,7.31,2.43q4.52,3.3,8.68,7c3.88,3.47,7.7,7,12.22,9.63a37.19,37.19,0,0,0,22.39,5c6.56-.54,12.72-2.56,18.76-5,5.31-2.16,10.57-4.43,15.91-6.51a51.55,51.55,0,0,1,13-3.32,18.64,18.64,0,0,1,9.78,1.09c4.74,2.08,7.22,5.83,7.83,10.89a1.77,1.77,0,0,1,0,.65,10.94,10.94,0,0,1-.44,1.07c-.3-.23-.7-.4-.88-.71-2.89-4.71-7.26-6.42-12.56-6.16s-10.27,2-15.12,4.08c-5.47,2.34-10.88,4.81-16.38,7.09A62.73,62.73,0,0,1,130.28,69a57.73,57.73,0,0,1-10.84,0c-7.91-.64-14.3-4.52-20.27-9.33-4.87-3.93-9-8.62-13.36-13.06a80.83,80.83,0,0,0-6.63-5.91,23.43,23.43,0,0,0-3.69-2,7.55,7.55,0,0,1-.77-.53c.27-.23.51-.58.82-.68A9.3,9.3,0,0,1,77.08,37.17Z"/><path class="cls-1" d="M91.6,96.89v6.43h-1c-6.45,0-12.9,0-19.36,0-.8,0-1,.24-1,1,0,1.88,0,3.76,0,5.63,0,2.1.64,2.75,2.71,2.75H96.84c1.7,0,2.62.53,3.13,2.16a41.41,41.41,0,0,1,.89,4.29H99.73c-9.39,0-18.79,0-28.18,0a12.4,12.4,0,0,1-3.15-.38,7.54,7.54,0,0,1-5.6-7.46q-.06-10.89,0-21.8c0-4.2,3-7.15,7.29-7.33,1.17,0,2.34,0,3.51,0h27.06c-.48,1.72-.84,3.3-1.36,4.82a2.29,2.29,0,0,1-2.46,1.59c-7.82,0-15.63,0-23.45,0-.3,0-.6,0-.9,0a2.1,2.1,0,0,0-2.2,2.23c-.05,1.85,0,3.7,0,5.55,0,.71.46.61.88.61H91.6Z"/><path class="cls-1" d="M222.09,119.1h-1.4c-2.15,0-4.3,0-6.45,0a.93.93,0,0,1-1-.63c-.89-2-1.83-3.88-2.72-5.84a1,1,0,0,0-1-.69q-11.76,0-23.52,0a.91.91,0,0,0-1,.62q-1.35,3-2.79,5.89c-.13.27-.47.6-.72.6-2.59,0-5.18,0-7.76,0a1.06,1.06,0,0,1-.28-.1c.1-.26.19-.5.3-.74l15.54-32.5A6,6,0,0,1,195.25,82c1.66,0,3.32,0,5,0a6,6,0,0,1,6,3.75q5.48,11.44,10.93,22.88,2.29,4.79,4.57,9.56C221.81,118.42,221.91,118.69,222.09,119.1ZM187.6,106.36h20.27c-.13-.33-.22-.58-.33-.82-.87-1.93-1.73-3.87-2.64-5.78-1.6-3.33-3.19-6.66-4.86-10-1-2.07-3.3-2.1-4.53-.13a7.44,7.44,0,0,0-.42.79q-3.14,6.59-6.26,13.17C188.43,104.49,188.05,105.36,187.6,106.36Z"/><path class="cls-1" d="M105.44,82h7.1c0,.38.07.75.07,1.11,0,9,0,17.9,0,26.85a4.07,4.07,0,0,0,.39,1.79,2.12,2.12,0,0,0,2.11,1q9.06,0,18.12,0c2.28,0,3.15.63,3.66,2.87a34.46,34.46,0,0,1,.47,3.46c-.47,0-.76,0-1,0-7.92,0-15.84,0-23.76,0-4.36,0-7.16-2.71-7.17-7.06,0-9.82,0-19.64,0-29.46C105.39,82.43,105.42,82.27,105.44,82Z"/><path class="cls-1" d="M140.86,82c2.32,0,4.55,0,6.77,0,.16,0,.39.25.44.43a2.73,2.73,0,0,1,0,.81q0,13.35,0,26.69a4,4,0,0,0,.33,1.73,2.16,2.16,0,0,0,2.22,1q10.22,0,20.42,0h1.13c-.63,1.33-1.18,2.52-1.77,3.7-.43.88-.7,2.06-1.41,2.51s-1.89.17-2.86.17q-8.82,0-17.65,0a12.36,12.36,0,0,1-2.35-.2c-3.31-.69-5.3-3.34-5.31-7q0-10.22,0-20.41V82Z"/><path class="cls-1" d="M22.55,125.75c1.14,0,2.22,0,3.31,0,1.85,0,3.7,0,5.54.17,3,.29,4.53,2.49,3.88,5.23A3.82,3.82,0,0,1,32.42,134c-.36.11-.74.17-1.26.29l5.41,6.6c-1.36.39-1.87.24-2.67-.79-1.29-1.66-2.55-3.33-3.88-5a1.73,1.73,0,0,0-1.13-.56c-1.3-.07-2.61,0-3.92,0-.71,0-.86.24-.84.89,0,1.82,0,3.64,0,5.53H22.55Zm1.64,7.33c2.39,0,4.71.14,7,0,1.76-.14,2.58-1.38,2.52-3.12A2.62,2.62,0,0,0,31,127.34c-1.9-.13-3.8-.11-5.7-.15H24.19Z"/><path class="cls-1" d="M157.49,128v13H156V125.83a2.17,2.17,0,0,1,2.34.73c3.56,3.82,7.18,7.59,10.78,11.37.14.15.31.28.57.52,0-.36,0-.59,0-.81,0-3.73,0-7.46-.07-11.18,0-.53.16-.73.7-.71s.78,0,.77.63c0,4.76,0,9.52,0,14.28a1.76,1.76,0,0,1,0,.27,1.22,1.22,0,0,1-1.49-.41C165.6,136.38,161.61,132.25,157.49,128Z"/><path class="cls-1" d="M79.62,139.49h11.3V141H78V125.81H90.43v1.49H79.62v5.08H89v1.33H79.62Z"/><path class="cls-1" d="M174.92,141c.41-.77.74-1.41,1.09-2.05,2.25-4.18,4.52-8.36,6.75-12.56a1.08,1.08,0,0,1,1.2-.68c.56,0,1,0,1.4.64,2.47,4.66,5,9.28,7.49,13.92.11.21.2.43.34.73a8.85,8.85,0,0,1-1.38,0,1,1,0,0,1-.66-.43c-.52-.92-1-1.87-1.47-2.82a1,1,0,0,0-1-.63c-3.1,0-6.2,0-9.3,0a.9.9,0,0,0-1,.57c-.4.83-.9,1.61-1.26,2.46a1.22,1.22,0,0,1-1.49.87A6.2,6.2,0,0,0,174.92,141Zm13.65-5.36c-1.51-3-3-5.81-4.49-8.76l-4.58,8.76Z"/><path class="cls-1" d="M6.25,135.32V141H4.67V125.75c1.12,0,2.23,0,3.33,0a47.65,47.65,0,0,1,6.34.37c2.92.52,4.3,3.09,3.44,5.93a4.4,4.4,0,0,1-4.2,3.09c-2.08.19-4.18.13-6.27.18C7,135.33,6.67,135.32,6.25,135.32Zm0-1.45c2.36,0,4.59.1,6.81,0a3.08,3.08,0,0,0,3.15-2.37,3.13,3.13,0,0,0-3.06-4.12c-2.1-.17-4.23-.12-6.35-.14-.18,0-.52.27-.52.42C6.24,129.69,6.25,131.75,6.25,133.87Z"/><path class="cls-1" d="M62.76,127.34v5.23h9.09V134H62.77v7H61.18V125.81H73.53l.11,1.53Z"/><path class="cls-1" d="M197.07,125.79h1.57v13.64h10.6V141H197.07Z"/><path class="cls-1" d="M128.76,141h-1.55V125.81h1.55Z"/></g></g></svg>