<svg xmlns="http://www.w3.org/2000/svg" viewBox="0 0 257.59 167.64"><defs><style>.cls-1{fill:none;stroke:#333;stroke-miterlimit:10;stroke-width:2px;}.cls-2{fill:#3a6fb6;}</style></defs><title>american_pay</title><g id="Layer_2" data-name="Layer 2"><g id="Layer_1-2" data-name="Layer 1"><rect class="cls-1" x="1" y="1" width="255.59" height="165.64" rx="6.58"/><polygon class="cls-2" points="112.17 70.43 98.78 70.43 98.78 65.62 111.83 65.62 111.83 60.81 98.78 60.81 98.78 56.35 112.17 56.35 112.17 51.2 92.94 51.2 92.94 75.58 112.17 75.58 112.17 70.43"/><rect class="cls-2" x="142.39" y="51.2" width="5.84" height="24.04"/><polygon class="cls-2" points="165.64 116.44 184.86 116.44 184.86 111.29 171.47 111.29 171.47 106.48 184.52 106.48 184.52 101.67 171.47 101.67 171.47 97.21 184.86 97.21 184.86 92.06 165.64 92.06 165.64 116.44"/><path class="cls-2" d="M226,102.22a10.79,10.79,0,0,0-3.67-.55H219.2a4.39,4.39,0,0,1-2.06-.34c-1-.34-1.38-.68-1.38-1.71a2.64,2.64,0,0,1,.69-1.72,5,5,0,0,1,2.41-.35H229.5V91.72H218.17a13.81,13.81,0,0,0-1.77.12c-4.6.88-6.47,3.83-6.47,7.09,0,7.55,6.52,7.21,12,7.55a2.93,2.93,0,0,1,2.06.69,2.5,2.5,0,0,1,0,3.43,2.91,2.91,0,0,1-2.41.69h-11v5.15h11c3.44,0,5.84-1,7.21-2.41a6.93,6.93,0,0,0,2.06-5.14,8,8,0,0,0-.1-1.24A7.44,7.44,0,0,0,226,102.22Z"/><path class="cls-2" d="M200,101.67h-3.09a4.39,4.39,0,0,1-2.06-.34c-.69-.34-1.37-.68-1.37-1.71,0-.69,0-1.38.68-1.72a5,5,0,0,1,2.41-.35h10.64V91.72H195.85c-6.18,0-8.24,3.78-8.24,7.21,0,7.55,6.52,7.21,12,7.55a2.93,2.93,0,0,1,2.06.69,2.5,2.5,0,0,1,0,3.43,2.91,2.91,0,0,1-2.41.69h-11v5.15h11c5.84,0,8.93-2.41,8.93-7.55a7.1,7.1,0,0,0-1.72-5.15C205.12,102.36,203.06,101.67,200,101.67Z"/><path class="cls-2" d="M208.9,51.55V68.37l-10-16.82h-8.58v23l-9.62-23h-8.58l-7.9,18.88h-2.4a5.43,5.43,0,0,1-4.12-1.38C156.36,67.68,156,66,156,63.22a8.07,8.07,0,0,1,1.72-5.5,6.32,6.32,0,0,1,4.46-1.37h5.5V51.2h-5.5c-3.78,0-6.87.69-8.58,2.75-2.41,2.74-3.09,6.18-3.09,9.61,0,4.47,1,7.21,3.09,9.27s5.49,2.75,8.24,2.75h6.52l2.06-5.49h12l2.06,5.15h11.64V72.11l0,0V57l11,18.2h7.56V51.55ZM172.5,64.93l4.12-9.61,3.78,9.61Z"/><path class="cls-2" d="M88.48,75.24v-24H79.21L72.34,67.68l-.11.36L69.12,61l-4.33-9.43h0l-.16-.34h-9.1v23l-9.61-23H37.32l-10.16,24h6l2.4-5.15H47.27l2.41,5.15H61.35V56.35l8.24,18.89h5.06l8-18.11h0l.34-.79V75.24h5.5ZM37,64.93l4.13-9.61,3.77,9.61Z"/><path class="cls-2" d="M136.51,96.87c-1.5-3.59-5.46-4.46-9-4.46h-18.2l-7.21,7.89-.17.18-1.28-1.4-6.1-6.68H72.24v24h22l7.56-7.9.32.37,0,0,6.57,7.55H120v-8.93h6.87c5.14,0,9.95-1.37,9.95-8.24A9.7,9.7,0,0,0,136.51,96.87Zm-45,14.76H77.39v-5.15H90.1v-4.81H77.39V97.21H91.81L98,104.42Zm22.66,2.75-8.93-10,8.93-9.61Zm13.39-11H120V97.21h7.21A3.47,3.47,0,0,1,131,100.3C131,102.36,129.58,103.39,127.52,103.39Z"/><path class="cls-2" d="M138.25,69.81v-.15a6.56,6.56,0,0,0-1.21-4,4,4,0,0,0-.34-.4l0,0a4.71,4.71,0,0,0-2.17-1.3,6.82,6.82,0,0,0,4.11-6.33c0-2.65-1-4.33-2.74-5.34s-3.78-1-6.86-1H116v24h5.83V66.65H128c1.61,0,2.59,0,3.1.34a3.09,3.09,0,0,1,1,.69c1,1.37,1,3.44,1,4.81v2.75h5.15V70.43c0-.21,0-.4,0-.59Zm-6.66-9a2.07,2.07,0,0,1-.27.37l-.08.09h0a1.31,1.31,0,0,1-.28.2,6.6,6.6,0,0,1-2.75.35h-6.87v-5.5h6.87a6.78,6.78,0,0,1,2.75.34,1.93,1.93,0,0,1,1,1.17h0a.22.22,0,0,1,0,.08,1.55,1.55,0,0,1,.06.31A3.72,3.72,0,0,1,131.59,60.84Z"/><path class="cls-2" d="M161.17,107.17c-.34-.69-1.37-1.38-3.09-2.06a6.84,6.84,0,0,0,4.12-6.52,6.07,6.07,0,0,0-3.09-5.5c-1.72-1-4.12-1-6.87-1h-13v24.38H145v-8.93h6.18c2.06,0,3.44,0,4.12,1,1,1,1,3.43,1,4.81v3.09h5.84v-4.81A7.75,7.75,0,0,0,161.17,107.17ZM156,100.3a2.69,2.69,0,0,1-1,2.41,6.78,6.78,0,0,1-2.75.34h-6.86v-5.5h6.86a6.6,6.6,0,0,1,2.75.35A1.9,1.9,0,0,1,156,100.3Z"/><path class="cls-2" d="M128.18,80.71H80.45a.5.5,0,0,1-.5-.5V78.6l-.75,1.81a.51.51,0,0,1-.46.3h-10a.51.51,0,0,1-.46-.3l-.76-1.82v1.62a.5.5,0,0,1-.5.5H47.15a.5.5,0,0,1-.47-.32l-1.94-5.17H41l-2.05,5.17a.5.5,0,0,1-.47.32H20.56a.48.48,0,0,1-.41-.22.49.49,0,0,1,0-.47l.15-.34,7.9-17.53L35,46a.5.5,0,0,1,.46-.31H50.58A.49.49,0,0,1,51,46l.76,1.81V46.22a.5.5,0,0,1,.5-.5H69.81a.51.51,0,0,1,.46.3l3.32,7.54L76.91,46a.5.5,0,0,1,.45-.3h55.29a10.68,10.68,0,0,1,6,1.59V46.22a.5.5,0,0,1,.5-.5h15.45a.5.5,0,0,1,.5.5v1.27a21.94,21.94,0,0,1,9.11-1.77h22a.51.51,0,0,1,.45.28l1.11,2.22v-2a.5.5,0,0,1,.5-.5h16.14a.49.49,0,0,1,.44.28L206,48.22v-2a.5.5,0,0,1,.5-.5h15.45a.5.5,0,0,1,.5.5V79.87a.5.5,0,0,1-.5.5H205.78a.51.51,0,0,1-.43-.24l-2.16-3.6v3.34a.5.5,0,0,1-.5.5H182.78a.5.5,0,0,1-.47-.32l-1.94-5.17h-4.11l-1.94,5.17a.51.51,0,0,1-.47.32h-10.3a21.56,21.56,0,0,1-8.77-1.77v1.27a.5.5,0,0,1-.5.5H129.55a.5.5,0,0,1-.5-.5V71.79h-.37v8.42A.5.5,0,0,1,128.18,80.71ZM81,79.71h46.73V71.29a.5.5,0,0,1,.5-.5h.69c1.14,0,1.18.44,1.18,1.53v7.05h23.73V77.81a.5.5,0,0,1,.72-.45,20.08,20.08,0,0,0,9.05,2h9.95l1.94-5.17a.5.5,0,0,1,.47-.32h4.81a.5.5,0,0,1,.46.32l1.94,5.17h19.07V74.72a.5.5,0,0,1,.93-.26l2.94,4.91h15.36V46.72H207v3.62a.51.51,0,0,1-.39.49.5.5,0,0,1-.56-.27l-1.92-3.84H188.77v3.62a.5.5,0,0,1-1,.22l-1.92-3.84H164.23a20.62,20.62,0,0,0-9.39,2,.48.48,0,0,1-.48,0,.51.51,0,0,1-.24-.43V46.72H139.67v1.56a.5.5,0,0,1-.28.45.49.49,0,0,1-.53-.06,9.44,9.44,0,0,0-6.21-2h-55L74,55a.5.5,0,0,1-.45.3h0a.51.51,0,0,1-.46-.3l-3.65-8.29H52.8v3.62a.5.5,0,0,1-.4.49.49.49,0,0,1-.56-.3l-1.6-3.81H35.8L29.06,62.55,21.33,79.71H38.09l2.07-5.17a.51.51,0,0,1,.46-.31h4.47a.51.51,0,0,1,.47.32l1.94,5.17H66.56V76.09a.51.51,0,0,1,.4-.49.5.5,0,0,1,.56.3l1.59,3.81H78.4L80,75.9a.49.49,0,0,1,.56-.3.51.51,0,0,1,.4.49Z"/><path class="cls-2" d="M223.29,121.92H208.53a.5.5,0,0,1-.5-.5V120.3a15.45,15.45,0,0,1-7.4,1.62h-46.7a.5.5,0,0,1-.5-.5v-7.9c0-.2,0-.4,0-.52h-.7v8.43a.5.5,0,0,1-.5.5H136.76a.5.5,0,0,1-.5-.5v-8.55a23.33,23.33,0,0,1-7.39.81h-1.22v7.4a.5.5,0,0,1-.5.5H107.92a.53.53,0,0,1-.38-.18l-4-4.56L99,121.43a.55.55,0,0,1-.36.15H68.44a.5.5,0,0,1-.5-.5V86.39a.5.5,0,0,1,.5-.5h30.9a.53.53,0,0,1,.38.18l4.09,4.73,4.43-4.75a.52.52,0,0,1,.37-.16h20.6c.89,0,5,.09,7.4,1.55v-1a.5.5,0,0,1,.5-.5h18.54c.79,0,4.5.09,7,1.6V86.4a.5.5,0,0,1,.5-.5h28.16a.5.5,0,0,1,.5.5v1a13.1,13.1,0,0,1,6.37-1.54H214a.5.5,0,0,1,.5.5v1.09a8.62,8.62,0,0,1,4.24-1.59H235.3a.5.5,0,0,1,.5.5v.9a.53.53,0,0,1,0,.13v15.31a13.74,13.74,0,0,1,1.72,6.66c0,.2,0,.39,0,.58a.38.38,0,0,1,0,.15l0,.37a12,12,0,0,1-5.69,9.63C230,121.35,227.26,121.92,223.29,121.92Zm-14.26-1h14.26c3.71,0,6.32-.54,8-1.63a11.08,11.08,0,0,0,5.22-8.88l0-.26a.41.41,0,0,1,0-.11c0-.21,0-.42,0-.64a12.7,12.7,0,0,0-1.65-6.27.52.52,0,0,1-.07-.25V87.55a.49.49,0,0,1,0-.12V86.9h-16c-1.94,0-4.4,1.93-4.43,1.95a.51.51,0,0,1-.53.06.52.52,0,0,1-.28-.46V86.9H198.23c-2.29,0-5.26.65-6.52,1.91a.51.51,0,0,1-.54.11.5.5,0,0,1-.31-.47V86.9H163.7v1.55a.5.5,0,0,1-.28.46.53.53,0,0,1-.54-.07c-2.26-1.89-6.73-2-7.23-2h-18v1.56a.5.5,0,0,1-.31.47.51.51,0,0,1-.54-.11c-1.42-1.41-4.95-1.92-7.55-1.92H108.83l-4.66,5a.59.59,0,0,1-.38.16.55.55,0,0,1-.37-.18l-4.31-5H68.94v33.69h29.5l4.82-4.82a.48.48,0,0,1,.37-.15.53.53,0,0,1,.36.17l4.16,4.8h18.5v-7.4a.5.5,0,0,1,.5-.5h1.72c2.4,0,5.39,0,7.7-1a.49.49,0,0,1,.69.46v8.77h14.46v-8.43a.5.5,0,0,1,.5-.5h.68c1.3,0,1.53.23,1.53,1.53v7.4h46.2c3.22,0,6.06-.73,7.58-2a.49.49,0,0,1,.53-.06.48.48,0,0,1,.29.45Z"/></g></g></svg>