<svg xmlns="http://www.w3.org/2000/svg" viewBox="0 0 257.59 167.64"><defs><style>.cls-1{fill:#333;}.cls-2{fill:none;stroke:#333;stroke-miterlimit:10;stroke-width:2px;}</style></defs><title>apple_pay</title><g id="Layer_2" data-name="Layer 2"><g id="Layer_1-2" data-name="Layer 1"><path class="cls-1" d="M60.11,50.84c-2.53,3-6.59,5.37-10.65,5-.51-4.06,1.48-8.37,3.8-11a15.93,15.93,0,0,1,10.58-5.45,16.06,16.06,0,0,1-3.73,11.46m3.68,5.83C57.92,56.34,52.88,60,50.09,60S43,56.84,38.34,56.93a17.37,17.37,0,0,0-14.76,9C17.24,76.8,21.93,93,28.06,101.83c3,4.4,6.6,9.22,11.34,9,4.48-.17,6.25-2.92,11.67-2.92s7,2.92,11.75,2.84c4.91-.09,8-4.4,11-8.8a38.77,38.77,0,0,0,4.91-10.1c-.09-.09-9.47-3.68-9.56-14.51-.08-9,7.4-13.36,7.74-13.61-4.23-6.26-10.82-6.94-13.11-7.11m34-12.26v65.92H108V87.79h14.16c12.94,0,22-8.87,22-21.73s-8.92-21.65-21.69-21.65ZM108,53h11.8c8.88,0,13.95,4.73,13.95,13.06s-5.07,13.11-14,13.11H108Zm54.88,57.8c6.43,0,12.39-3.26,15.1-8.42h.21v7.91h9.47V77.52c0-9.51-7.61-15.64-19.32-15.64-10.87,0-18.9,6.21-19.2,14.75h9.22c.76-4.06,4.52-6.72,9.68-6.72,6.26,0,9.77,2.92,9.77,8.29v3.63L165,82.59c-11.88.72-18.31,5.59-18.31,14S153.35,110.84,162.86,110.84Zm2.75-7.82c-5.45,0-8.92-2.63-8.92-6.64s3.34-6.56,9.72-6.94l11.38-.72v3.73C177.79,98.62,172.55,103,165.61,103Zm34.67,25.24c10,0,14.67-3.81,18.78-15.35l18-50.4h-10.4l-12.06,38.94h-.21L202.31,62.51h-10.7l17.34,48-.93,2.92c-1.56,5-4.1,6.85-8.63,6.85-.8,0-2.36-.09-3-.17V128a29.7,29.7,0,0,0,3.89.25Z"/><rect class="cls-2" x="1" y="1" width="255.59" height="165.64" rx="6.58"/></g></g></svg>