<svg xmlns="http://www.w3.org/2000/svg" viewBox="0 0 257.59 167.64"><defs><style>.cls-1{fill:none;stroke:#333;stroke-miterlimit:10;stroke-width:2px;}.cls-2{fill:#333;}.cls-3{fill:#fff;}</style></defs><title>diners_pay</title><g id="Layer_2" data-name="Layer 2"><g id="Layer_1-2" data-name="Layer 1"><rect class="cls-1" x="1" y="1" width="255.59" height="165.64" rx="6.58"/><path class="cls-2" d="M62,112.13c15.51.08,29.67-12.62,29.67-28.06C91.69,67.18,77.53,55.5,62,55.51H48.67C33,55.5,20.06,67.18,20.06,84.07c0,15.44,12.92,28.14,28.61,28.06H62"/><path class="cls-3" d="M54.63,99.1V68.44a16.4,16.4,0,0,1,0,30.66M32.28,83.77A16.44,16.44,0,0,1,42.84,68.44V99.1A16.44,16.44,0,0,1,32.28,83.77M48.74,57.85a25.92,25.92,0,1,0,26,25.92,26,26,0,0,0-26-25.92"/><path class="cls-2" d="M100.78,67.69c0-2.68-1.4-2.5-2.74-2.53v-.77c1.16,0,2.35,0,3.52,0s3,0,5.16,0c7.73,0,11.93,5.15,11.93,10.42,0,3-1.72,10.36-12.29,10.36-1.52,0-2.92-.06-4.32-.06s-2.66,0-4,.06V84.4c1.79-.18,2.65-.24,2.74-2.27Zm2.92,14c0,2.29,1.65,2.56,3.11,2.56,6.44,0,8.56-4.86,8.56-9.29,0-5.57-3.58-9.59-9.34-9.59-1.22,0-1.79.09-2.33.12Zm16,2.74h.57c.83,0,1.43,0,1.43-1V75.34c0-1.3-.45-1.49-1.55-2.08v-.48a33.3,33.3,0,0,0,3.19-1.07,1.06,1.06,0,0,1,.54-.15c.14,0,.21.18.21.42V83.41c0,1,.65,1,1.49,1h.5v.77c-1,0-2.06-.06-3.13-.06s-2.15,0-3.25.06ZM122.89,67a1.54,1.54,0,0,1-1.46-1.49,1.52,1.52,0,0,1,1.46-1.43,1.45,1.45,0,0,1,1.46,1.43A1.49,1.49,0,0,1,122.89,67Zm6,8.54c0-1.1-.33-1.4-1.73-2V73a38.44,38.44,0,0,0,3.94-1.43c.09,0,.17.06.17.3V73.8c1.71-1.22,3.17-2.24,5.17-2.24,2.54,0,3.43,1.85,3.43,4.17v7.68c0,1,.66,1,1.49,1h.54v.77c-1.05,0-2.09-.06-3.16-.06s-2.15,0-3.23.06V84.4h.54c.84,0,1.43,0,1.43-1V75.7c0-1.7-1-2.53-2.74-2.53a7.93,7.93,0,0,0-3.47,1.43v8.81c0,1,.66,1,1.5,1h.54v.77c-1.05,0-2.09-.06-3.17-.06s-2.15,0-3.22.06V84.4h.54c.83,0,1.43,0,1.43-1ZM144.2,77a7.49,7.49,0,0,0,0,1.73c.17,2.83,2,5.15,4.38,5.15a5.71,5.71,0,0,0,4-2l.42.41c-1.37,1.82-3.08,3.37-5.52,3.37-4.75,0-5.7-4.59-5.7-6.49,0-5.84,3.94-7.57,6-7.57,2.41,0,5,1.52,5,4.68a3.32,3.32,0,0,1,0,.54l-.27.17Zm5.28-1c.75,0,.83-.39.83-.74a2.52,2.52,0,0,0-2.59-2.74c-1.82,0-3.08,1.33-3.43,3.48Zm4.09,8.4h.8c.83,0,1.43,0,1.43-1V75.05c0-.93-1.1-1.11-1.55-1.34v-.45c2.18-.92,3.37-1.7,3.65-1.7s.26.09.26.39v2.68h.06c.75-1.16,2-3.07,3.82-3.07a1.63,1.63,0,0,1,1.7,1.58,1.44,1.44,0,0,1-1.4,1.52c-.93,0-.93-.72-2-.72a2.52,2.52,0,0,0-2.18,2.48v7c0,1,.6,1,1.43,1h1.67v.77c-1.64,0-2.89-.06-4.17-.06s-2.48,0-3.55.06ZM165.05,81c.39,2,1.59,3.64,3.76,3.64a2.11,2.11,0,0,0,2.42-2.12c0-3.51-6.5-2.38-6.5-7.17,0-1.67,1.34-3.82,4.62-3.82a7.81,7.81,0,0,1,3.4.87l.21,3h-.69A3.05,3.05,0,0,0,169,72.52a2.1,2.1,0,0,0-2.33,2c0,3.49,6.93,2.41,6.93,7.09,0,2-1.58,4.05-5.14,4.05a7.89,7.89,0,0,1-3.63-1l-.33-3.43Zm35.51-11.25h-.74c-.57-3.49-3-4.89-6.39-4.89S185,67.18,185,74.33c0,6,4.3,10.34,8.9,10.34a6.08,6.08,0,0,0,6-5.16l.68.18L199.91,84a16.74,16.74,0,0,1-6.6,1.58c-7,0-11.4-4.5-11.4-11.2,0-6.1,5.46-10.48,11.31-10.48a21.4,21.4,0,0,1,7,1.58Zm1.08,14.62h.56c.84,0,1.43,0,1.43-1V66.83c0-1.94-.44-2-1.58-2.32V64a19.16,19.16,0,0,0,3.08-1.28,2.88,2.88,0,0,1,.65-.33c.18,0,.24.18.24.42V83.41c0,1,.66,1,1.49,1H208v.77c-1,0-2.06-.06-3.13-.06s-2.15,0-3.25.06Zm19.15-.87c0,.54.33.57.84.57l1.19,0v.63a30.72,30.72,0,0,0-4.3.92l-.15-.09V83.12c-1.78,1.46-3.16,2.5-5.28,2.5a3.21,3.21,0,0,1-3.28-3.54V74.45c0-.77-.12-1.52-1.79-1.67v-.56c1.08,0,3.46-.21,3.85-.21s.33.21.33.86v7.68c0,.9,0,3.46,2.59,3.46a6.63,6.63,0,0,0,3.61-1.81v-8c0-.59-1.43-.92-2.5-1.22v-.53c2.68-.18,4.36-.42,4.65-.42s.24.21.24.54Zm5.94-9.82c1.19-1,2.8-2.15,4.45-2.15,3.46,0,5.54,3,5.54,6.26,0,3.9-2.86,7.8-7.13,7.8a8.87,8.87,0,0,1-4.14-1l-.9.68-.62-.33a35.64,35.64,0,0,0,.41-5.3V66.83c0-1.94-.45-2-1.58-2.32V64a18.61,18.61,0,0,0,3.07-1.28,3.09,3.09,0,0,1,.66-.33c.18,0,.24.18.24.42Zm0,8.1a3.2,3.2,0,0,0,3.07,3c3.2,0,4.54-3.13,4.54-5.78,0-3.22-2.45-5.9-4.78-5.9a4.64,4.64,0,0,0-2.83,1.4ZM98,102.49h.23c.59,0,1.2-.08,1.2-.93V93.08c0-.85-.61-.93-1.2-.93H98v-.49c.64,0,1.61.07,2.41.07s1.78-.07,2.55-.07v.49h-.23c-.58,0-1.2.08-1.2.93v8.48c0,.85.62.93,1.2.93H103V103c-.78,0-1.76-.06-2.57-.06S98.64,103,98,103Zm16.11-2.71,0,0V93.67a1.33,1.33,0,0,0-1.41-1.52h-.36v-.49c.77,0,1.51.07,2.28.07s1.33-.07,2-.07v.49h-.24c-.68,0-1.45.13-1.45,2.06v7.37a10.79,10.79,0,0,0,.1,1.64h-.62l-8.36-9.3v6.67c0,1.41.28,1.9,1.53,1.9h.27V103c-.69,0-1.39-.06-2.09-.06s-1.48.06-2.21.06v-.48h.23c1.12,0,1.46-.76,1.46-2.06V93.61a1.46,1.46,0,0,0-1.48-1.46h-.21v-.49c.62,0,1.25.07,1.87.07s1-.07,1.44-.07Zm5-7.31c-1.22,0-1.26.3-1.51,1.48h-.48c.06-.46.14-.91.19-1.38a9,9,0,0,0,.1-1.38h.39c.13.49.54.47,1,.47h8.37c.44,0,.85,0,.88-.5l.39.07c-.07.43-.13.87-.18,1.31s0,.87,0,1.31l-.49.18c0-.6-.11-1.56-1.2-1.56h-2.66v8.62c0,1.25.57,1.4,1.34,1.4h.31V103c-.63,0-1.77-.06-2.64-.06s-2.11.06-2.75.06v-.48h.31c.9,0,1.35-.08,1.35-1.36V92.47Zm9.83,10h.22c.59,0,1.21-.08,1.21-.93V93.08c0-.85-.62-.93-1.21-.93h-.22v-.49c1,0,2.68.07,4,.07s3.05-.07,4.15-.07c0,.7,0,1.77,0,2.48l-.49.13c-.08-1-.27-1.89-2-1.89h-2.25v4.24h1.93c1,0,1.18-.55,1.28-1.42h.48c0,.63,0,1.26,0,1.89s0,1.23,0,1.85l-.48.1c-.1-1-.15-1.61-1.27-1.61h-1.94v3.78c0,1.05.93,1.05,2,1.05,2,0,2.81-.13,3.3-2l.45.11c-.21.86-.4,1.71-.55,2.57-1,0-2.9-.06-4.36-.06s-3.4.06-4.32.06Zm11.42-9.11c0-1.18-.64-1.23-1.15-1.23h-.29v-.49c.52,0,1.52.07,2.52.07s1.75-.07,2.61-.07c2,0,3.86.55,3.86,2.86a3.07,3.07,0,0,1-2.25,2.85l2.77,4.14a1.82,1.82,0,0,0,1.58,1V103c-.54,0-1.06-.06-1.59-.06s-1,.06-1.53.06a44.91,44.91,0,0,1-3.38-5.25H142.4v3.47c0,1.25.59,1.3,1.33,1.3h.3V103c-.93,0-1.87-.06-2.8-.06-.78,0-1.54.06-2.35.06v-.48h.29c.6,0,1.15-.28,1.15-.88Zm2.08,3.76h.8c1.62,0,2.5-.62,2.5-2.53a2.21,2.21,0,0,0-2.37-2.36c-.49,0-.7,0-.93.06ZM161,99.78l0,0V93.67a1.33,1.33,0,0,0-1.41-1.52h-.36v-.49c.77,0,1.51.07,2.27.07s1.33-.07,2-.07v.49h-.24c-.68,0-1.45.13-1.45,2.06v7.37a10.79,10.79,0,0,0,.1,1.64h-.62L153,93.92v6.67c0,1.41.28,1.9,1.53,1.9h.28V103c-.7,0-1.4-.06-2.1-.06s-1.48.06-2.21.06v-.48h.23c1.12,0,1.46-.76,1.46-2.06V93.61a1.46,1.46,0,0,0-1.48-1.46h-.21v-.49c.62,0,1.25.07,1.87.07s1-.07,1.44-.07Zm5.15.88a6.06,6.06,0,0,0-.36,1.26c0,.49.68.57,1.21.57h.18V103c-.65,0-1.31-.06-2-.06s-1.17,0-1.76.06v-.48h.1a1.47,1.47,0,0,0,1.41-1.06l2.6-7.43a12.78,12.78,0,0,0,.6-2,8.25,8.25,0,0,0,1.48-.7.31.31,0,0,1,.13,0,.12.12,0,0,1,.12,0c0,.13.09.27.14.4l3,8.48c.19.56.39,1.16.6,1.65a1,1,0,0,0,1.07.65h.1V103c-.73,0-1.46-.06-2.24-.06s-1.61,0-2.44.06v-.48h.18c.37,0,1-.07,1-.47a5.29,5.29,0,0,0-.33-1.17L170.34,99h-3.69Zm2.36-7.18h0L167,98.06h3Zm7-1c-1.22,0-1.27.3-1.51,1.48h-.49c.07-.46.15-.91.2-1.38a10.43,10.43,0,0,0,.09-1.38h.4c.13.49.53.47,1,.47h8.38c.43,0,.84,0,.87-.5l.39.07c-.06.43-.13.87-.17,1.31s0,.87,0,1.31l-.49.18c0-.6-.11-1.56-1.2-1.56h-2.66v8.62c0,1.25.57,1.4,1.35,1.4h.31V103c-.64,0-1.77-.06-2.65-.06s-2.11.06-2.74.06v-.48h.31c.89,0,1.34-.08,1.34-1.36V92.47Zm9.9,10h.23c.58,0,1.2-.08,1.2-.93V93.08c0-.85-.62-.93-1.2-.93h-.23v-.49c.64,0,1.61.07,2.4.07s1.79-.07,2.55-.07v.49h-.22c-.59,0-1.21.08-1.21.93v8.48c0,.85.62.93,1.21.93h.22V103c-.78,0-1.75-.06-2.56-.06s-1.75.06-2.39.06Zm11.43-11.07c3.46,0,6.22,2.14,6.22,5.59a6,6,0,0,1-6.14,6.21,5.74,5.74,0,0,1-6.07-5.82A5.9,5.9,0,0,1,196.83,91.42Zm.24,11.08c3.15,0,3.7-2.77,3.7-5.13s-1.28-5.24-4-5.24c-2.84,0-3.69,2.53-3.69,4.7C193.11,99.73,194.44,102.5,197.07,102.5ZM214,99.78l0,0V93.67a1.34,1.34,0,0,0-1.41-1.52h-.36v-.49c.77,0,1.51.07,2.27.07s1.34-.07,2-.07v.49h-.24c-.68,0-1.45.13-1.45,2.06v7.37a10.79,10.79,0,0,0,.1,1.64h-.61L206,93.92v6.67c0,1.41.28,1.9,1.53,1.9h.27V103c-.69,0-1.39-.06-2.09-.06s-1.48.06-2.21.06v-.48h.23c1.12,0,1.46-.76,1.46-2.06V93.61a1.45,1.45,0,0,0-1.48-1.46h-.21v-.49c.62,0,1.25.07,1.87.07s1-.07,1.44-.07Zm5.14.88a6.57,6.57,0,0,0-.35,1.26c0,.49.68.57,1.21.57h.18V103c-.65,0-1.31-.06-2-.06s-1.17,0-1.75.06v-.48h.09a1.48,1.48,0,0,0,1.41-1.06l2.6-7.43a12.78,12.78,0,0,0,.6-2,8.25,8.25,0,0,0,1.48-.7.31.31,0,0,1,.13,0s.08,0,.11,0l.15.4,3,8.48c.19.56.38,1.16.6,1.65a1,1,0,0,0,1.07.65h.1V103c-.73,0-1.46-.06-2.24-.06s-1.61,0-2.44.06v-.48h.18c.37,0,1-.07,1-.47a5.29,5.29,0,0,0-.33-1.17L223.34,99h-3.69Zm2.37-7.18h0L220,98.06h3Zm10.38,7.91c0,.65.45.84,1,.9a12,12,0,0,0,2.15,0,2.32,2.32,0,0,0,1.55-.87,3.72,3.72,0,0,0,.51-1.17h.47c-.18.92-.41,1.83-.61,2.75-1.42,0-2.85-.06-4.28-.06s-2.86.06-4.29.06v-.48h.23c.59,0,1.22-.08,1.22-1.09V93.07c0-.84-.63-.92-1.22-.92h-.23v-.49c.86,0,1.71.07,2.57.07s1.64-.07,2.47-.07v.49H233c-.62,0-1.1,0-1.1.87Z"/></g></g></svg>