<svg xmlns="http://www.w3.org/2000/svg" viewBox="0 0 257.59 167.64"><defs><style>.cls-1{fill:#606469;}.cls-2{fill:#557ebf;}.cls-3{fill:#36a852;}.cls-4{fill:#f9bc15;}.cls-5{fill:#ea4535;}.cls-6{fill:none;stroke:#333;stroke-miterlimit:10;stroke-width:2px;}</style></defs><title>google_pay</title><g id="Layer_2" data-name="Layer 2"><g id="Layer_1-2" data-name="Layer 1"><path class="cls-1" d="M122.94,90.84V116h-8V53.81h21.2a19.12,19.12,0,0,1,13.73,5.39,18,18,0,0,1,0,26.34,19.12,19.12,0,0,1-13.73,5.29Zm0-29.37V83.2h13.4A10.83,10.83,0,0,0,144.46,65l-.21-.21a10.45,10.45,0,0,0-7.91-3.3ZM174,72.07q8.86,0,14,4.74c3.42,3.15,5.12,7.49,5.12,13V116H185.5v-5.91h-.35q-5,7.3-13.21,7.3a17.17,17.17,0,0,1-11.77-4.17,13.35,13.35,0,0,1-4.73-10.43,12.64,12.64,0,0,1,5-10.51q5-3.9,13.33-3.91A23.69,23.69,0,0,1,185.5,91V89.17a9.1,9.1,0,0,0-3.3-7.07,11.33,11.33,0,0,0-7.72-2.91,12.26,12.26,0,0,0-10.6,5.65l-7-4.43q5.81-8.34,17.19-8.34ZM163.68,103a6.37,6.37,0,0,0,2.65,5.21,9.71,9.71,0,0,0,6.21,2.09,12.74,12.74,0,0,0,9-3.74,11.67,11.67,0,0,0,4-8.77q-3.75-3-10.43-3A13.51,13.51,0,0,0,167,97.15a7.05,7.05,0,0,0-3.27,5.85ZM237,73.46,210.34,134.8h-8.25l9.9-21.46L194.44,73.46h8.68L215.81,104H216l12.34-30.58Z"/><path class="cls-2" d="M90.63,85.4A42.13,42.13,0,0,0,90,78.13H56.31V91.89h19.3a16.53,16.53,0,0,1-7.14,10.87v8.94H80c6.74-6.21,10.63-15.42,10.63-26.3Z"/><path class="cls-3" d="M56.31,120.34c9.64,0,17.77-3.17,23.69-8.63l-11.53-8.94A21.69,21.69,0,0,1,36.24,91.43H24.37v9.21A35.75,35.75,0,0,0,56.31,120.34Z"/><path class="cls-4" d="M36.24,91.43a21.36,21.36,0,0,1,0-13.68V68.54H24.37a35.71,35.71,0,0,0,0,32.1Z"/><path class="cls-5" d="M56.31,63A19.41,19.41,0,0,1,70,68.35l10.21-10.2a34.43,34.43,0,0,0-23.92-9.31,35.77,35.77,0,0,0-31.94,19.7l11.87,9.21A21.37,21.37,0,0,1,56.31,63Z"/><rect class="cls-6" x="1" y="1" width="255.59" height="165.64" rx="6.58"/></g></g></svg>