<svg xmlns="http://www.w3.org/2000/svg" viewBox="0 0 257.59 167.64"><defs><style>.cls-1{fill:#333;}.cls-2{fill:#f26122;}.cls-3{fill:#ea1d25;}.cls-4{fill:#f69e1e;}.cls-5{fill:none;stroke:#333;stroke-miterlimit:10;stroke-width:2px;}</style></defs><title>masrecard_pay</title><g id="Layer_2" data-name="Layer 2"><g id="Layer_1-2" data-name="Layer 1"><path class="cls-1" d="M87.62,133.8a3.6,3.6,0,1,1,3.61,3.81,3.57,3.57,0,0,1-3.61-3.81m9.63,0v-6H94.66v1.45a4.5,4.5,0,0,0-3.75-1.74,6.26,6.26,0,0,0,0,12.5,4.5,4.5,0,0,0,3.75-1.75v1.45h2.59v-6Zm87.43,0a3.61,3.61,0,1,1,3.61,3.81,3.57,3.57,0,0,1-3.61-3.81m9.64,0V123.07h-2.59v6.23a4.52,4.52,0,0,0-3.76-1.74,6.26,6.26,0,0,0,0,12.5,4.52,4.52,0,0,0,3.76-1.75v1.45h2.59Zm-64.95-3.93c1.66,0,2.73,1,3,2.89H126.2a3.07,3.07,0,0,1,3.17-2.89m0-2.32c-3.49,0-5.93,2.54-5.93,6.25a5.87,5.87,0,0,0,6.1,6.25,7.25,7.25,0,0,0,4.88-1.67l-1.27-1.92a5.67,5.67,0,0,1-3.46,1.25,3.3,3.3,0,0,1-3.56-2.92H135c0-.32,0-.64,0-1,0-3.71-2.32-6.25-5.65-6.25m31.24,6.25a3.6,3.6,0,1,1,3.61,3.81,3.57,3.57,0,0,1-3.61-3.81m9.63,0v-6H167.7v1.45a4.5,4.5,0,0,0-3.75-1.74,6.26,6.26,0,0,0,0,12.5,4.5,4.5,0,0,0,3.75-1.75v1.45h2.59v-6Zm-24.25,0a6,6,0,0,0,6.35,6.25,6.23,6.23,0,0,0,4.28-1.42l-1.24-2.09a5.21,5.21,0,0,1-3.12,1.07,3.82,3.82,0,0,1,0-7.62,5.26,5.26,0,0,1,3.12,1.07l1.24-2.09a6.23,6.23,0,0,0-4.28-1.42A6,6,0,0,0,146,133.8m33.36-6.25a3.54,3.54,0,0,0-3.14,1.74v-1.44H173.7v11.9h2.59v-6.67c0-2,.85-3.06,2.54-3.06a4.12,4.12,0,0,1,1.62.3l.79-2.44a5.39,5.39,0,0,0-1.84-.33M110,128.8a8.89,8.89,0,0,0-4.85-1.25c-3,0-5,1.45-5,3.81,0,1.94,1.44,3.14,4.1,3.51l1.22.18c1.42.2,2.09.57,2.09,1.24,0,.92-.94,1.45-2.71,1.45a6.36,6.36,0,0,1-4-1.25l-1.21,2a8.62,8.62,0,0,0,5.15,1.54c3.44,0,5.43-1.61,5.43-3.88,0-2.09-1.57-3.19-4.16-3.56l-1.22-.18c-1.12-.14-2-.37-2-1.16s.85-1.4,2.27-1.4a7.64,7.64,0,0,1,3.71,1l1.12-2.09Zm33.39-1.24a3.49,3.49,0,0,0-3.13,1.74v-1.45h-2.57v11.9h2.59v-6.67c0-2,.85-3.06,2.54-3.06a4.12,4.12,0,0,1,1.62.3l.79-2.44a5.39,5.39,0,0,0-1.84-.33m-22.08.3h-4.23v-3.61H114.5v3.61h-2.41v2.37h2.41v5.42c0,2.77,1.07,4.41,4.14,4.41a6.08,6.08,0,0,0,3.23-.92l-.74-2.22a4.81,4.81,0,0,1-2.3.68c-1.29,0-1.71-.8-1.71-2v-5.38h4.23Zm-38.69,11.9v-7.46A4.42,4.42,0,0,0,78,127.56a4.59,4.59,0,0,0-4.18,2.11,4.35,4.35,0,0,0-3.93-2.11,4,4,0,0,0-3.49,1.76v-1.47H63.79v11.9H66.4v-6.6c0-2.06,1.15-3.16,2.92-3.16s2.59,1.12,2.59,3.14v6.62h2.61v-6.6c0-2.06,1.2-3.16,2.91-3.16S80,131.11,80,133.13v6.62Z"/><path class="cls-2" d="M148.4,107.64H109.19V37.17H148.4Z"/><path class="cls-3" d="M111.68,72.4a44.73,44.73,0,0,1,17.11-35.23,44.82,44.82,0,1,0,0,70.47A44.75,44.75,0,0,1,111.68,72.4"/><path class="cls-4" d="M201.3,72.4a44.82,44.82,0,0,1-72.51,35.24,44.82,44.82,0,0,0,0-70.47A44.81,44.81,0,0,1,201.3,72.4"/><rect class="cls-5" x="1" y="1" width="255.59" height="165.64" rx="6.58"/></g></g></svg>