<svg xmlns="http://www.w3.org/2000/svg" viewBox="0 0 257.59 167.64"><defs><style>.cls-1{fill:none;stroke:#333;stroke-miterlimit:10;stroke-width:2px;}.cls-2{fill:#333;}</style></defs><title>visa_pay</title><g id="Layer_2" data-name="Layer 2"><g id="Layer_1-2" data-name="Layer 1"><rect class="cls-1" x="1" y="1" width="255.59" height="165.64" rx="6.58"/><path class="cls-2" d="M81.48,51.67l-17.23,44-1.84-6.64C59,81,49.37,69.54,38,62.29L53.8,116.12H72.42l27.71-64.44Z"/><path class="cls-2" d="M61.67,84.82,55.73,56.29c-1-3.93-4-5.1-7.66-5.24H20.79l-.23,1.29C41.79,57.48,55.84,69.9,61.67,84.82Z"/><path class="cls-2" d="M160.31,77.55c-6.15-3-9.92-5-9.88-8,0-2.69,3.19-5.55,10.08-5.55a32.2,32.2,0,0,1,13.17,2.47l1.59.74,2.38-14a45.42,45.42,0,0,0-15.77-2.71c-17.39,0-29.64,8.76-29.74,21.3-.11,9.28,8.74,14.45,15.42,17.54,6.85,3.17,9.15,5.19,9.12,8-.05,4.32-5.47,6.3-10.53,6.3a36.89,36.89,0,0,1-16.56-3.39l-2.27-1-2.48,14.45c4.12,1.81,11.72,3.37,19.61,3.45,18.5,0,30.51-8.66,30.64-22C175.16,87.74,170.46,82.15,160.31,77.55Z"/><polygon class="cls-2" points="96.23 116.18 113.83 116.18 124.84 51.61 107.24 51.61 96.23 116.18"/><path class="cls-2" d="M209.19,51.67c-4.22,0-7.36,1.16-9.22,5.36L173.85,116.2h18.48s3-8,3.69-9.7l22.54,0c.53,2.26,2.14,9.68,2.14,9.68H237L222.79,51.67Zm-8.11,41.62c1.45-3.71,7-18.05,7-18.05-.1.18,1.44-3.73,2.34-6.16l1.19,5.57s3.37,15.41,4.07,18.64Z"/></g></g></svg>